<svg xmlns="http://www.w3.org/2000/svg" xmlns:xlink="http://www.w3.org/1999/xlink" width="281" height="147.124" viewBox="0 0 281 147.124">
  <defs>
    <filter id="v" x="0" y="0" width="281" height="147.124" filterUnits="userSpaceOnUse">
      <feOffset dy="3" input="SourceAlpha"/>
      <feGaussianBlur stdDeviation="2" result="blur"/>
      <feFlood flood-color="#010304" flood-opacity="0.09"/>
      <feComposite operator="in" in2="blur"/>
      <feComposite in="SourceGraphic"/>
    </filter>
    <linearGradient id="linear-gradient" y1="0.5" x2="1" y2="0.5" gradientUnits="objectBoundingBox">
      <stop offset="0" stop-color="#fff"/>
      <stop offset="1" stop-color="#c5c7c9"/>
    </linearGradient>
    <radialGradient id="radial-gradient" cx="0.732" cy="-0.083" r="1.163" gradientTransform="translate(0.048) scale(0.903 1)" gradientUnits="objectBoundingBox">
      <stop offset="0" stop-color="#464648"/>
      <stop offset="0.165" stop-color="#7b7d7f"/>
      <stop offset="0.305" stop-color="#464648"/>
      <stop offset="0.522" stop-color="#abadaf"/>
      <stop offset="0.813" stop-color="#464648"/>
      <stop offset="1" stop-color="#7b7d7f"/>
    </radialGradient>
    <linearGradient id="linear-gradient-2" x1="0.793" y1="-0.201" x2="0.183" y2="0.933" gradientUnits="objectBoundingBox">
      <stop offset="0" stop-color="#7b7d7f"/>
      <stop offset="0.187" stop-color="#fff"/>
      <stop offset="0.478" stop-color="#abadaf"/>
      <stop offset="0.696" stop-color="#e0e1e2"/>
      <stop offset="0.835" stop-color="#7b7d7f"/>
      <stop offset="1" stop-color="#abadaf"/>
    </linearGradient>
    <clipPath id="clip-path">
      <path id="Path_21" data-name="Path 21" d="M331.128,300.04c19.52,3.551,38.253,7.011,57.122,10.554-.7,6.247-1.136,12.579-1.557,18.736-.885,12.918-1.8,26.275-5.208,38.968-3.111,11.585-9.085,19.828-18.261,25.2-7.981,4.672-17.007,6.375-24.258,7.744-2.959.558-5.579,1.052-7.836,1.682-2.259-.629-4.875-1.122-7.836-1.682-7.251-1.367-16.277-3.071-24.258-7.744-9.176-5.371-15.15-13.614-18.261-25.2-3.412-12.693-4.323-26.05-5.208-38.968-.42-6.157-.853-12.489-1.556-18.736,18.864-3.543,37.6-7.005,57.118-10.554" transform="translate(-274.01 -300.04)"/>
    </clipPath>
    <linearGradient id="linear-gradient-3" x1="0.099" y1="-0.006" x2="0.895" y2="0.8" gradientUnits="objectBoundingBox">
      <stop offset="0" stop-color="#6d6e70"/>
      <stop offset="1"/>
    </linearGradient>
    <radialGradient id="radial-gradient-2" cx="0.781" cy="-0.865" r="2.334" gradientTransform="translate(0.314) scale(0.372 1)" xlink:href="#radial-gradient"/>
    <linearGradient id="linear-gradient-4" x1="0.901" y1="-0.569" x2="0.249" y2="1.16" xlink:href="#linear-gradient-2"/>
    <linearGradient id="linear-gradient-5" x1="5.002" y1="-2.053" x2="-0.081" y2="0.693" xlink:href="#linear-gradient-2"/>
    <linearGradient id="linear-gradient-6" x1="4.159" y1="-1.702" x2="-0.453" y2="1.064" xlink:href="#linear-gradient-2"/>
    <linearGradient id="linear-gradient-7" x1="4.863" y1="-1.44" x2="-1.378" y2="1.335" xlink:href="#linear-gradient-2"/>
    <linearGradient id="linear-gradient-8" x1="3.949" y1="-1.182" x2="-1.676" y2="1.565" xlink:href="#linear-gradient-2"/>
    <linearGradient id="linear-gradient-9" x1="3.321" y1="-1.011" x2="-2.211" y2="1.78" xlink:href="#linear-gradient-2"/>
    <linearGradient id="linear-gradient-10" x1="5.953" y1="-0.797" x2="-5.782" y2="1.994" xlink:href="#linear-gradient-2"/>
    <linearGradient id="linear-gradient-11" x1="2.559" y1="-0.57" x2="-2.529" y2="2.181" xlink:href="#linear-gradient-2"/>
    <linearGradient id="linear-gradient-12" x1="2.211" y1="-0.356" x2="-3.212" y2="2.357" xlink:href="#linear-gradient-2"/>
    <radialGradient id="radial-gradient-3" cx="0.905" cy="-6.342" r="9.089" gradientTransform="translate(0.427) scale(0.146 1)" xlink:href="#radial-gradient"/>
    <linearGradient id="linear-gradient-13" x1="1.157" y1="-3.709" x2="0.287" y2="1.918" xlink:href="#linear-gradient-2"/>
  </defs>
  <g id="Box" transform="translate(-820 3)">
    <g transform="matrix(1, 0, 0, 1, 820, -3)" filter="url(#v)">
      <path id="v-2" data-name="v" d="M0,0H269V114L134.775,135.124,0,114Z" transform="translate(6 3)" fill="#fff"/>
    </g>
    <g id="Logo" transform="translate(687.412 -259.606)">
      <g id="Group_2" data-name="Group 2" transform="translate(208.642 269.093)">
        <rect id="Rectangle_4" data-name="Rectangle 4" width="129.254" height="116.988" fill="none" opacity="0.4"/>
        <g id="Group_1" data-name="Group 1" transform="translate(0.663 0.647)">
          <path id="Path_12" data-name="Path 12" d="M376.4,292.365c-20.84-3.921-41.3-7.7-61.571-11.385-20.276,3.687-40.729,7.465-61.571,11.385,2.693,20.327,1.838,41.558,7.329,62,9.438,35.135,41.816,33.758,54.247,37.78,12.431-4.022,44.809-2.649,54.244-37.78,5.49-20.445,4.631-41.68,7.329-62C376.4,292.368,376.4,292.365,376.4,292.365Z" transform="translate(-251.151 -279.075)" fill="url(#linear-gradient)"/>
          <path id="Path_13" data-name="Path 13" d="M309.36,388.582l-.414-.133a74.422,74.422,0,0,0-8.418-1.885c-7.66-1.445-17.192-3.244-25.974-8.386-10.455-6.12-17.237-15.423-20.733-28.44-3.545-13.2-4.478-26.821-5.379-39.994-.5-7.322-1.02-14.894-1.984-22.18l-.167-1.269,1.263-.234c20.324-3.822,40.469-7.547,61.571-11.385l.244-.043.244.043c21.1,3.838,41.242,7.556,61.574,11.385l1.245.225-.155,1.265c-.966,7.3-1.486,14.868-1.987,22.191-.9,13.174-1.828,26.8-5.379,40-3.5,13.017-10.28,22.322-20.735,28.442-8.784,5.143-18.317,6.941-25.974,8.386a74.762,74.762,0,0,0-8.418,1.885ZM249.278,288.463c.874,6.972,1.364,14.144,1.84,21.093.893,13.04,1.817,26.535,5.293,39.486,7.488,27.879,29.829,32.1,44.614,34.887a83,83,0,0,1,8.333,1.84,83.6,83.6,0,0,1,8.333-1.84c14.784-2.79,37.125-7.005,44.614-34.887,3.477-12.944,4.4-26.434,5.293-39.486.474-6.947.966-14.115,1.84-21.093-19.828-3.726-39.5-7.363-60.082-11.106-20.578,3.743-40.248,7.38-60.078,11.106Z" transform="translate(-245.688 -274.087)" fill="url(#radial-gradient)"/>
          <path id="Path_14" data-name="Path 14" d="M307.161,272.635l.244.043c21.1,3.838,41.242,7.556,61.574,11.385l1.245.225-.155,1.265c-.966,7.3-1.486,14.868-1.987,22.191-.9,13.174-1.828,26.8-5.379,40-3.494,13.017-10.275,22.322-20.73,28.442-8.784,5.143-18.317,6.94-25.974,8.386a74.8,74.8,0,0,0-8.418,1.885l-.414.133-.414-.133a74.459,74.459,0,0,0-8.418-1.885c-7.66-1.445-17.192-3.244-25.974-8.386-10.455-6.12-17.237-15.423-20.733-28.44-3.545-13.2-4.477-26.821-5.379-39.994-.5-7.322-1.02-14.894-1.984-22.18L244.1,284.3l1.263-.234c20.324-3.822,40.469-7.547,61.571-11.385l.234-.041m0,111.135a83.626,83.626,0,0,1,8.333-1.84c14.784-2.79,37.125-7.005,44.614-34.887,3.477-12.944,4.4-26.434,5.293-39.486.474-6.947.966-14.115,1.84-21.093-19.828-3.726-39.5-7.363-60.082-11.106-20.583,3.743-40.25,7.378-60.082,11.106.874,6.972,1.364,14.144,1.84,21.093.893,13.04,1.817,26.535,5.293,39.486,7.488,27.879,29.829,32.1,44.614,34.887a83.025,83.025,0,0,1,8.334,1.84m0-111.681-.1.017-.244.043c-21.118,3.839-41.259,7.566-61.574,11.385l-1.26.234-.5.093.067.5.167,1.269c.964,7.271,1.482,14.834,1.982,22.147.9,13.2,1.838,26.848,5.4,40.1,3.534,13.162,10.4,22.569,20.98,28.761,8.865,5.188,18.446,7,26.146,8.449a74.763,74.763,0,0,1,8.353,1.868l.414.133.166.054.166-.054.414-.133a73.876,73.876,0,0,1,8.351-1.868c7.7-1.454,17.286-3.261,26.151-8.449,10.584-6.195,17.446-15.6,20.98-28.761,3.559-13.247,4.492-26.9,5.4-40.1.5-7.312,1.018-14.877,1.982-22.158l.155-1.271.06-.5-.5-.09-1.246-.225c-20.31-3.821-40.452-7.544-61.574-11.385l-.244-.043-.1-.017Zm-59.486,14.815c19.636-3.689,39.1-7.288,59.486-11,20.388,3.708,39.852,7.3,59.488,11-.837,6.834-1.316,13.842-1.781,20.622-.891,13.022-1.812,26.486-5.276,39.381-7.4,27.552-29.544,31.731-44.2,34.5-3.187.6-5.948,1.124-8.235,1.806-2.288-.685-5.047-1.2-8.234-1.806-14.654-2.766-36.8-6.947-44.2-34.5-3.464-12.9-4.387-26.359-5.276-39.379-.464-6.783-.943-13.791-1.781-20.622Z" transform="translate(-243.489 -272.093)" fill="url(#linear-gradient-2)"/>
        </g>
      </g>
      <g id="Group_8" data-name="Group 8" transform="translate(215.86 275.739)">
        <g id="Group_6" data-name="Group 6" transform="translate(0)" clip-path="url(#clip-path)">
          <rect id="Rectangle_5" data-name="Rectangle 5" width="112.402" height="42.414" transform="translate(1.054 1.523)" fill="none" opacity="0.4"/>
          <g id="Group_5" data-name="Group 5" transform="translate(1.842 2.345)">
            <g id="Group_3" data-name="Group 3" transform="translate(0)">
              <path id="Path_15" data-name="Path 15" d="M527.1,359.767l-1.034,5.165-1.376,2.409v1.722L524,371.473l.69,1.722-.244.554a35.138,35.138,0,0,0,4.866-10.567c-.442-2.15-.831-4.1-.831-4.1Z" transform="translate(-472.16 -348.746)" fill="#549659"/>
              <path id="Path_16" data-name="Path 16" d="M449.931,391.952l.69,1.376-3.788,4.131-3.788,3.445a55.326,55.326,0,0,1-2.846,5.881c.731-.026,1.462-.05,2.2-.073q3.08-.1,6.157-.174l1.375-1.158,1.722-2.755s-5.165,2.409-5.85,2.755c-.084.041-.009-.059.183-.264,1.4-1.5,9.116-8.688,9.116-8.688a13.728,13.728,0,0,0-3.788,0c-.69.344,4.131-11.708,4.131-11.708Z" transform="translate(-406.354 -368.88)" fill="#549659"/>
              <path id="Path_17" data-name="Path 17" d="M379.054,447.95l-.69-.69-6.543,5.85-3.788,3.1-.554.462,4.046-.244.294-.222-.344-1.376Z" transform="translate(-349.251 -417.992)" fill="#549659"/>
              <path id="Path_18" data-name="Path 18" d="M340.333,310.96l-2.072,3.1-1.894,3.1L335,316.127l-.654,1.308-2.79,5.579-1.722-.69L320.188,333l-2.072-2.755-1.722,2.072-2.072.69-3.1-2.409-8.94,7.224-2.756-1.376-2.755,2.409-4.477-1.722-2.072,1.376-2.072-2.072-2.755,4.478-1.722.344-1.035,1.035c.206,2.891.428,5.8.691,8.708q3.849-.357,7.709-.663l-.3-.817s1.722-4.478,2.409-4.821-7.575,2.755-7.575,2.755l2.755-2.755,6.887-2.755.2-.2,2.214-.663s-2.612,6.788-3.291,9c.225-.017.451-.032.676-.048.244-.271.537-.6.853-.969l1.068.8,9.985-7.575-1.376-.344,3.1-2.755-2.409.344,4.821-3.443h-2.175l2.175-1.894,2.755,4.478s4.131-5.85,4.131-6.543.69,1.722.69,1.722l2.072.69,7.025-8.029c-3.169,4.1-8.057,10.956-8.057,10.956l-2.072-1.033-2.409,4.131s-.344-1.722-3.1,3.1a21.833,21.833,0,0,1-4.6,5.588q2.8-.145,5.606-.26l8.63-10.838,1.377-3.1,7.231-10.329v-1.2l2.409,1.033,2.755-6.543.69,4.131,2.755-5.51s.69.172,1.033-.862c.166-.5.569.244.944,1.141a28.779,28.779,0,0,0-.586-5.957Z" transform="translate(-282.639 -310.96)" fill="#549659"/>
            </g>
            <g id="Group_4" data-name="Group 4" transform="translate(49.133 0.005)">
              <path id="Path_19" data-name="Path 19" d="M513.395,391.292l.592,2.375-.244,1.069,3.788-1.376.019.184c-.93,1.005-2.057,2.194-3.117,3.26l1.376-.344s-2.976,3.15-4.435,4.833q3.105-.032,6.2-.037,6.393,0,12.806.141v-.846l-3.1-.69-.244-6.276s-.764.994-.764.307l-.609-5.972,1.962,4.707,1.25,2.179-.563,3.674s1.02-.232,1.02.457,2.768,1.265,2.768,1.265c-.146.29-.412.764-.623,1.219q3.209.078,6.42.189c-1.527-2.857-3.846-7.332-3.846-8.254,0-1.377-1.376,1.722-1.376,1.722l-1.032,1.376-5.165-11.018-1.376.69-2.072-6.2s-2.409,3.1-2.409,3.788c0,.389-.659-2.742-1.235-5.538a35.067,35.067,0,0,1-4.866,10.567Z" transform="translate(-511.374 -363.749)" fill="#348f3a"/>
              <path id="Path_20" data-name="Path 20" d="M602.244,346.779l-.7-.825-1.025-.552-1.731-2.891-2.745.825-1.722,1.376-2.409-7.922-4.475,4.821-1.144.763-3.672-6.614-2.072,1.376s-3.1-4.478-3.1-5.165c0-.575-5.275,5.563-7.02,7.612l-11.4-13.809-1.376.344-4.131-9.3-2.238-5.85a29.064,29.064,0,0,1,.6,5.961c.406.975.777,2.133.777,2.133l5.165,8.437,1.033.172,12.051,20.143,1.034-3.96,2.3,5.175q1.314.059,2.626.122l-1.706-2.654.572.285,1.032-5.51-1.376-1.033.69-1.722,1.034-3.1,3.1,11.362v-6.893l1.722,2.755.684-1.72,1.194,3.822-1.194,1.341,1.033,3.1-.039.316q1.511.09,3.019.189l4.6-7.045,2.755,5.51s-.1,1.051-.086,2.044q1.784.135,3.571.282l.646-1.293-2.072-.69,1.516-1.818,1.239-.244.69,2.409,1.377-1.376,2.038,3.492.355.032q.2-2.184.395-4.449Z" transform="translate(-542.723 -310.972)" fill="#348f3a"/>
            </g>
          </g>
        </g>
        <g id="Group_7" data-name="Group 7" transform="translate(0)" clip-path="url(#clip-path)">
          <path id="Path_22" data-name="Path 22" d="M331.128,300.04c19.52,3.551,38.253,7.011,57.122,10.554-.7,6.247-1.136,12.579-1.557,18.736-.885,12.918-1.8,26.275-5.208,38.968-3.111,11.585-9.085,19.828-18.261,25.2-7.981,4.672-17.007,6.375-24.258,7.744-2.959.558-5.579,1.052-7.836,1.682-2.259-.629-4.875-1.122-7.836-1.682-7.251-1.367-16.277-3.071-24.258-7.744-9.176-5.371-15.15-13.614-18.261-25.2-3.412-12.693-4.323-26.05-5.208-38.968-.42-6.157-.853-12.489-1.556-18.736,18.864-3.543,37.6-7.005,57.118-10.554" transform="translate(-274.01 -300.04)" opacity="0.1" fill="url(#linear-gradient-3)"/>
        </g>
      </g>
      <g id="Group_25" data-name="Group 25" transform="translate(199.958 316.945)">
        <rect id="Rectangle_6" data-name="Rectangle 6" width="146.828" height="56.845" fill="none" opacity="0.4"/>
        <g id="Group_24" data-name="Group 24" transform="translate(0.787 0.798)">
          <g id="Group_10" data-name="Group 10" transform="translate(0 0)">
            <g id="Group_9" data-name="Group 9" transform="translate(0.596 0.534)">
              <path id="Path_24" data-name="Path 24" d="M351.022,508.727a528.683,528.683,0,0,0-135.154,0l-2.579.333.31,2.768,4.5,40.284.31,2.768,2.579-.333a486.268,486.268,0,0,1,124.893,0l2.579.333.311-2.768,4.518-40.283.311-2.768Z" transform="translate(-211.811 -503.047)" fill="#5e366a"/>
              <path id="Path_25" data-name="Path 25" d="M344.235,551.471l-3.934-.509a484.907,484.907,0,0,0-124.551,0l-3.934.507L206.4,502.987l3.889-.5a530.06,530.06,0,0,1,135.5,0l3.889.5Zm-66.141-7.206a490.143,490.143,0,0,1,62.552,4.038l1.226.158,4.841-43.152-1.271-.163a527.432,527.432,0,0,0-134.809,0l-1.271.163,4.821,43.153,1.226-.157a492.83,492.83,0,0,1,62.684-4.034Z" transform="translate(-206.4 -498.139)" fill="url(#radial-gradient-2)"/>
            </g>
            <path id="Path_26" data-name="Path 26" d="M275.915,496.177a529.863,529.863,0,0,1,67.631,4.34l3.952.51-5.439,48.485L338.125,549a484.929,484.929,0,0,0-124.551,0l-3.934.507-5.413-48.487,3.889-.5a533.2,533.2,0,0,1,67.8-4.346M212,546.5l1.226-.157a487.648,487.648,0,0,1,125.236,0l1.226.159,4.841-43.152-1.271-.163a527.427,527.427,0,0,0-134.809,0l-1.271.163L212,546.5m63.91-50.86a533.913,533.913,0,0,0-67.872,4.351l-3.889.5-.524.067.059.524,5.416,48.49.06.544.541-.068,3.934-.507a484.356,484.356,0,0,1,124.415,0l3.934.509.541.071.06-.544,5.439-48.485.059-.524-.524-.068-3.889-.5a530.244,530.244,0,0,0-67.76-4.354Zm-68.138,8.173.747-.1a526.882,526.882,0,0,1,134.667,0l.747.1-4.72,42.084-.685-.088a488.223,488.223,0,0,0-125.376,0l-.685.088-4.7-42.088Z" transform="translate(-203.629 -495.642)" fill="url(#linear-gradient-4)"/>
          </g>
          <g id="Group_23" data-name="Group 23" transform="translate(5.861 5.077)">
            <g id="Group_12" data-name="Group 12">
              <rect id="Rectangle_7" data-name="Rectangle 7" width="134.253" height="42.003" fill="none" opacity="0.4"/>
              <g id="Group_11" data-name="Group 11" transform="translate(0.812 0.785)">
                <path id="Path_27" data-name="Path 27" d="M365.764,535.031l.829-7.812-15.927-1.628-.771,7.25.481-6.459-.941-.338a26.123,26.123,0,0,0-3.412-.93,27.286,27.286,0,0,0-3.64-.536,12.614,12.614,0,0,0-6.97,1.06,8.7,8.7,0,0,0-3.807,5.42q-.331,1.1-.609,2.516l.459-9.333-7.538-.357v-.068l-18.987-.47-.011.448-.285-.1a13.331,13.331,0,0,0-2.559-.487,26.45,26.45,0,0,0-4.2-.189,13.03,13.03,0,0,0-5.22,1.071,6.862,6.862,0,0,0-3.317,3.584l-.15-4.221-16,.55.324,9.068a21.218,21.218,0,0,0-.731-3.468,7.06,7.06,0,0,0-2.95-3.966,9.559,9.559,0,0,0-5.772-1.076l-10.526.691.375,5.49a7.19,7.19,0,0,0-3-3.719,9.433,9.433,0,0,0-5.85-.934l-10.3,1.024,3.526,34.124.135,1.3,8.5-.846L245.8,550.966l1.8-.178a9.048,9.048,0,0,0,5.627-2.195,7.225,7.225,0,0,0,1.727-2.731l1.02,14.929,8.522-.561-.8-11.717.431-.028,3.317,10.545.31.986,6.713-.442v.022l16-.55-.011-.311.088.022a23.756,23.756,0,0,0,3.64.536,36.585,36.585,0,0,0,3.858.122,12.271,12.271,0,0,0,5.194-1.082,6.674,6.674,0,0,0,3.193-3.914,26.536,26.536,0,0,0,.023-12.834A6.079,6.079,0,0,0,304.3,538.5a7.6,7.6,0,0,0-3.047-1.142l-3.371-.67a2.251,2.251,0,0,1-.7-.215,1.067,1.067,0,0,1-.093-.3,15.046,15.046,0,0,1-.167-2.206,13.7,13.7,0,0,1,.05-2,1.329,1.329,0,0,1,.214-.626,1.069,1.069,0,0,1,.539-.267,9.066,9.066,0,0,1,2.091-.234c.925-.025,1.815-.011,2.641.04,1.02.067,1.462.122,1.655.15l.623.1v.172l5.225.129-.711,27.647,8.538.212.711-27.647,4.092.1-1.3,26.354-.065,1.316,8.482.4.311-6.33a8.387,8.387,0,0,0,2.649,5.287,11.239,11.239,0,0,0,6.436,2.049,32.6,32.6,0,0,0,4.134.022,19.707,19.707,0,0,0,3.743-.526l-.073.693,15.927,1.628.829-7.812-7.434-.761.653-6.157,6.51.666.829-7.812-6.509-.665.619-5.822Zm-16.584,4.551-10.157-.731-.574,7.69,2.534.183-.479,6.44c-.214,0-.447-.013-.691-.031a2.052,2.052,0,0,1-1.366-.434,4.631,4.631,0,0,1-.412-2.39c-.032-1.492.09-4.108.366-7.778a56.934,56.934,0,0,1,.962-7.928c.406-1.64.888-1.883.908-1.891a4.664,4.664,0,0,1,1.828-.234c.389,0,.829.017,1.308.051a37.3,37.3,0,0,1,4.928.868l1.462.33ZM290.8,551.42l-.609-.042-.006-.185-7.468.258-.221-6.185,6.541-.225-.217-6.051a12.9,12.9,0,0,0,.5,1.913,4.608,4.608,0,0,0,3.618,3.275l3.928.707h0a4,4,0,0,1,1.441.417.853.853,0,0,1,.225.473,16.028,16.028,0,0,1,.223,2.71,5.639,5.639,0,0,1-.279,2.681.949.949,0,0,1-.47.244,8.567,8.567,0,0,1-1.8.184c-1.26.045-3.082-.021-5.407-.174Zm-2.415-17.037q.045,1.543.177,2.813l-6.349.219-.208-5.85,6.47-.223a25.156,25.156,0,0,0-.091,3.041Zm-16.567,11.48a6.777,6.777,0,0,0,1.828-3.7c.062-.366.112-.76.152-1.178l.42,11.768Zm-6.423-5.995a1.476,1.476,0,0,1-.158.654,2.133,2.133,0,0,1-1.046.225l-1.031.068-.564-8.28,1.022-.067c.122-.009.244-.012.356-.012a1.708,1.708,0,0,1,.7.1,1.33,1.33,0,0,1,.26.64,36.44,36.44,0,0,1,.457,6.676ZM247,542.022a1.4,1.4,0,0,1-.177.795,1.887,1.887,0,0,1-.975.257l-.834.084-.938-9.067.825-.082a4.629,4.629,0,0,1,.464-.026,1.32,1.32,0,0,1,.578.082,1.463,1.463,0,0,1,.311.711,28.5,28.5,0,0,1,.53,3.6,29.428,29.428,0,0,1,.217,3.64Z" transform="translate(-234.749 -522.999)" fill="#626366"/>
              </g>
            </g>
            <g id="Group_22" data-name="Group 22" transform="translate(1.186 1.031)">
              <rect id="Rectangle_8" data-name="Rectangle 8" width="131.883" height="39.838" fill="none" opacity="0.4"/>
              <g id="Group_21" data-name="Group 21" transform="translate(0.786 0.807)">
                <g id="Group_13" data-name="Group 13" transform="translate(0 2.976)">
                  <path id="Path_28" data-name="Path 28" d="M241.48,544.1l8.992-.9a8.165,8.165,0,0,1,5.036.752,6,6,0,0,1,2.559,3.334,28.955,28.955,0,0,1,1.177,6.169,29.376,29.376,0,0,1,.122,6.13,6.26,6.26,0,0,1-1.784,3.863,7.791,7.791,0,0,1-4.819,1.828l-3.109.31,1.108,10.725-5.879.586Zm9.762,16.087a2.91,2.91,0,0,0,1.776-.634,2.459,2.459,0,0,0,.564-1.671,42.972,42.972,0,0,0-.788-7.629,2.37,2.37,0,0,0-.891-1.5,3.047,3.047,0,0,0-1.866-.244l-2.139.212L249.1,560.4Z" transform="translate(-241.184 -542.823)" fill="#fff"/>
                  <path id="Path_29" data-name="Path 29" d="M243.546,576.224,240.1,542.886l9.262-.921a8.473,8.473,0,0,1,5.2.788,6.279,6.279,0,0,1,2.669,3.478,29.451,29.451,0,0,1,1.192,6.23,29.788,29.788,0,0,1,.122,6.189,6.543,6.543,0,0,1-1.863,4.022,8.065,8.065,0,0,1-4.98,1.9l-2.841.284,1.108,10.725Zm-2.857-32.861,3.334,32.275,5.345-.533-1.108-10.725,3.378-.338a7.568,7.568,0,0,0,4.655-1.752,6.018,6.018,0,0,0,1.706-3.7,29.28,29.28,0,0,0-.122-6.073,28.9,28.9,0,0,0-1.164-6.112,5.756,5.756,0,0,0-2.437-3.193,7.953,7.953,0,0,0-4.875-.713Zm7.09,16.348-1.263-12.216,2.407-.244a3.244,3.244,0,0,1,2.034.288,2.612,2.612,0,0,1,1.009,1.662,43.315,43.315,0,0,1,.8,7.709,2.718,2.718,0,0,1-.642,1.849,3.123,3.123,0,0,1-1.939.711Zm-.674-11.735,1.153,11.149,1.872-.186a2.675,2.675,0,0,0,1.612-.558,2.223,2.223,0,0,0,.487-1.492,42.9,42.9,0,0,0-.781-7.556,2.137,2.137,0,0,0-.773-1.341,2.817,2.817,0,0,0-1.7-.209Z" transform="translate(-240.1 -541.849)" fill="url(#linear-gradient-5)"/>
                </g>
                <g id="Group_14" data-name="Group 14" transform="translate(18.746 1.49)">
                  <path id="Path_30" data-name="Path 30" d="M342.5,568.992l-3.627-11.531-.1.006-2.681.175.8,11.717-5.9.389-2.246-32.9,9.21-.609a8.3,8.3,0,0,1,4.98.874,5.755,5.755,0,0,1,2.4,3.253,33.562,33.562,0,0,1,.817,11.934,5.354,5.354,0,0,1-2.06,3.522l4.445,12.774Zm-2.612-17.1a2.193,2.193,0,0,0,.629-1.555,25.642,25.642,0,0,0-.071-3.55,26.129,26.129,0,0,0-.412-3.528,2.214,2.214,0,0,0-.834-1.462,3.184,3.184,0,0,0-1.855-.285l-2.339.155.745,10.9,2.339-.155a3.168,3.168,0,0,0,1.8-.525Z" transform="translate(-328.46 -535.901)" fill="#fff"/>
                  <path id="Path_31" data-name="Path 31" d="M329.685,569.059l-.02-.267L327.4,535.625l9.48-.623a8.585,8.585,0,0,1,5.14.915,6.034,6.034,0,0,1,2.513,3.4,33.8,33.8,0,0,1,.823,12.065,5.651,5.651,0,0,1-2.007,3.571l4.5,12.924-6.605.434-3.627-11.531-2.3.15.8,11.717Zm-1.706-32.939,2.21,32.367,5.362-.352-.8-11.717,3.258-.214,3.627,11.531,5.484-.366-4.4-12.626.157-.122a5.109,5.109,0,0,0,1.956-3.352,33.311,33.311,0,0,0-.806-11.807,5.519,5.519,0,0,0-2.289-3.108,8.1,8.1,0,0,0-4.819-.834Zm6.459,15.764-.781-11.439,2.607-.172a3.4,3.4,0,0,1,2.017.327,2.468,2.468,0,0,1,.953,1.626,26.515,26.515,0,0,1,.419,3.57,26.214,26.214,0,0,1,.071,3.59,2.45,2.45,0,0,1-.724,1.737h0a3.39,3.39,0,0,1-1.95.589Zm-.213-10.939.708,10.367,2.072-.135a2.942,2.942,0,0,0,1.645-.466h0a1.965,1.965,0,0,0,.533-1.372,25.759,25.759,0,0,0-.071-3.509,26.09,26.09,0,0,0-.406-3.487,1.968,1.968,0,0,0-.715-1.291,2.968,2.968,0,0,0-1.694-.244Z" transform="translate(-327.4 -534.927)" fill="url(#linear-gradient-6)"/>
                </g>
                <g id="Group_15" data-name="Group 15" transform="translate(38.367 0.481)">
                  <path id="Path_32" data-name="Path 32" d="M421.227,564.827l-1.177-32.957,13.376-.459.186,5.22-7.468.258.3,8.478,6.541-.226.186,5.222-6.541.225.316,8.815,7.468-.257.186,5.222Z" transform="translate(-419.775 -531.127)" fill="#fff"/>
                  <path id="Path_33" data-name="Path 33" d="M419.964,564.084l-.008-.268-1.186-33.23,13.91-.479.206,5.757-7.468.257.284,7.941,6.541-.225.206,5.757-6.543.23.3,8.277,7.473-.253.206,5.757Zm-.64-32.976,1.158,32.417,12.839-.44-.167-4.686-7.468.257-.335-9.35,6.541-.225-.167-4.686-6.541.225-.322-9.018,7.468-.257-.167-4.686Z" transform="translate(-418.77 -530.107)" fill="url(#linear-gradient-7)"/>
                </g>
                <g id="Group_16" data-name="Group 16" transform="translate(53.493 0)">
                  <path id="Path_34" data-name="Path 34" d="M495.137,562.793a22.544,22.544,0,0,1-3.435-.5l-.135-4.743q3.572.244,5.527.185a9.929,9.929,0,0,0,2.094-.225,2.209,2.209,0,0,0,1.153-.679,6.084,6.084,0,0,0,.583-3.565,17.563,17.563,0,0,0-.256-2.965,2.011,2.011,0,0,0-.745-1.249,5.179,5.179,0,0,0-1.973-.642l-3.929-.707a3.333,3.333,0,0,1-2.609-2.423,21.042,21.042,0,0,1-.853-6.114,14.82,14.82,0,0,1,.806-6.04,5.606,5.606,0,0,1,2.723-3.024,11.661,11.661,0,0,1,4.687-.943,25.075,25.075,0,0,1,3.987.178,14.528,14.528,0,0,1,2.285.417l.138,4.791c-.329-.054-.924-.11-1.789-.167s-1.784-.071-2.762-.045a10.429,10.429,0,0,0-2.412.282,2.279,2.279,0,0,0-1.226.731,2.571,2.571,0,0,0-.477,1.26,15.261,15.261,0,0,0-.06,2.207,16.619,16.619,0,0,0,.191,2.416,1.731,1.731,0,0,0,.544,1.063,2.908,2.908,0,0,0,1.284.488l3.391.674a6.277,6.277,0,0,1,2.542.936,4.843,4.843,0,0,1,1.657,2.448,25.5,25.5,0,0,1-.025,11.943,5.4,5.4,0,0,1-2.547,3.187,11.1,11.1,0,0,1-4.641.943,33.85,33.85,0,0,1-3.717-.112Z" transform="translate(-490.255 -528.865)" fill="#fff"/>
                  <path id="Path_35" data-name="Path 35" d="M497.113,562.19c-.925,0-1.916-.04-2.954-.122a22.754,22.754,0,0,1-3.477-.511l-.2-.047-.15-5.24.294.02c2.362.157,4.211.219,5.5.183a9.688,9.688,0,0,0,2.035-.217,1.95,1.95,0,0,0,1.018-.595c.267-.338.58-1.205.518-3.382a17.266,17.266,0,0,0-.244-2.914,1.747,1.747,0,0,0-.638-1.1,4.968,4.968,0,0,0-1.862-.595l-3.929-.708a3.6,3.6,0,0,1-2.815-2.6,21.373,21.373,0,0,1-.874-6.2,15.124,15.124,0,0,1,.826-6.152,5.878,5.878,0,0,1,2.854-3.161,11.979,11.979,0,0,1,4.8-.975,25.389,25.389,0,0,1,4.03.18,14.494,14.494,0,0,1,2.339.429l.172.062.15,5.3-.322-.054c-.316-.054-.908-.107-1.761-.163s-1.781-.068-2.738-.043a10.219,10.219,0,0,0-2.343.273,2.009,2.009,0,0,0-1.086.634,2.316,2.316,0,0,0-.423,1.13,15,15,0,0,0-.059,2.164,16.738,16.738,0,0,0,.186,2.373,1.493,1.493,0,0,0,.448.907,2.693,2.693,0,0,0,1.166.438l3.393.674a6.568,6.568,0,0,1,2.641.975,5.1,5.1,0,0,1,1.759,2.579,25.679,25.679,0,0,1-.026,12.124,5.667,5.667,0,0,1-2.681,3.334,11.4,11.4,0,0,1-4.753.975Q497.515,562.19,497.113,562.19Zm-6.107-1.113a22.842,22.842,0,0,0,3.193.451h0a35.133,35.133,0,0,0,3.687.113,10.9,10.9,0,0,0,4.526-.915,5.155,5.155,0,0,0,2.415-3.038,25.3,25.3,0,0,0,.026-11.763,4.6,4.6,0,0,0-1.555-2.316,6.052,6.052,0,0,0-2.437-.893l-3.394-.673a3.137,3.137,0,0,1-1.4-.547,2,2,0,0,1-.637-1.219,16.766,16.766,0,0,1-.2-2.459,15.2,15.2,0,0,1,.062-2.25,2.853,2.853,0,0,1,.53-1.389,2.524,2.524,0,0,1,1.366-.823,10.736,10.736,0,0,1,2.477-.292c.975-.028,1.911-.011,2.787.045.651.043,1.144.084,1.5.122l-.122-4.281a18.352,18.352,0,0,0-2.057-.35,25.047,25.047,0,0,0-3.945-.177,11.5,11.5,0,0,0-4.58.917,5.354,5.354,0,0,0-2.592,2.886,14.625,14.625,0,0,0-.784,5.927,20.893,20.893,0,0,0,.842,6.031,3.064,3.064,0,0,0,2.4,2.249l3.929.707a5.3,5.3,0,0,1,2.08.687,2.293,2.293,0,0,1,.853,1.409,17.628,17.628,0,0,1,.262,3.019,6.215,6.215,0,0,1-.64,3.739,2.488,2.488,0,0,1-1.3.773,10.143,10.143,0,0,1-2.154.234c-1.252.034-3.019-.022-5.256-.166Z" transform="translate(-489.296 -527.868)" fill="url(#linear-gradient-8)"/>
                </g>
                <g id="Group_17" data-name="Group 17" transform="translate(69.891 0.371)">
                  <path id="Path_36" data-name="Path 36" d="M571.374,563.955l.711-27.647-5.225-.129.138-5.32,16.356.406-.138,5.32-5.225-.129-.711,27.647Z" transform="translate(-566.583 -530.585)" fill="#fff"/>
                  <path id="Path_37" data-name="Path 37" d="M576.537,563.371l-6.445-.159.711-27.647-5.225-.129.15-5.856,16.894.419-.15,5.85-5.225-.129Zm-5.895-.682,5.373.133.711-27.647,5.224.129.122-4.782-15.821-.393-.122,4.782,5.225.129Z" transform="translate(-565.579 -529.58)" fill="url(#linear-gradient-9)"/>
                </g>
                <g id="Group_18" data-name="Group 18" transform="translate(86.412 0.89)">
                  <path id="Path_38" data-name="Path 38" d="M643.82,566.228l1.62-32.938,5.85.277L649.67,566.5Z" transform="translate(-643.538 -533.012)" fill="#fff"/>
                  <path id="Path_39" data-name="Path 39" d="M648.9,565.762l-6.391-.3,1.645-33.475,6.391.3Zm-5.828-.814,5.318.251,1.593-32.4-5.318-.251Z" transform="translate(-642.51 -531.983)" fill="url(#linear-gradient-10)"/>
                </g>
                <g id="Group_19" data-name="Group 19" transform="translate(94.832 1.468)">
                  <path id="Path_40" data-name="Path 40" d="M691.832,555.658l.378-5.067,7.8.558-1.36,18.217a18.217,18.217,0,0,1-3.513.494,31.221,31.221,0,0,1-3.966-.019,10.136,10.136,0,0,1-5.7-1.755,7.531,7.531,0,0,1-2.269-5.039,56.9,56.9,0,0,1,.06-10.689,53.353,53.353,0,0,1,1.572-10.579,7.434,7.434,0,0,1,3.187-4.649,11.38,11.38,0,0,1,6.239-.9,25.929,25.929,0,0,1,3.463.513,25.1,25.1,0,0,1,3.24.88l-.358,4.827a38.052,38.052,0,0,0-5.119-.9,8.493,8.493,0,0,0-3.795.3q-1.066.5-1.626,2.768a57.252,57.252,0,0,0-1,8.147q-.416,5.591-.366,7.9a5.821,5.821,0,0,0,.673,3.148,3.031,3.031,0,0,0,2.328.96,8.661,8.661,0,0,0,2.012-.047l.662-8.9Z" transform="translate(-682.711 -535.852)" fill="#fff"/>
                  <path id="Path_41" data-name="Path 41" d="M692.282,569.2c-.724,0-1.432-.023-2.117-.073a10.434,10.434,0,0,1-5.85-1.815,7.8,7.8,0,0,1-2.364-5.214,57.306,57.306,0,0,1,.06-10.743,53.855,53.855,0,0,1,1.584-10.638,7.72,7.72,0,0,1,3.314-4.805,11.7,11.7,0,0,1,6.386-.932,26.644,26.644,0,0,1,3.5.518,25.288,25.288,0,0,1,3.277.891l.191.068-.4,5.343-.3-.068a38.129,38.129,0,0,0-5.084-.891,8.332,8.332,0,0,0-3.656.279c-.631.3-1.13,1.166-1.479,2.587a57.381,57.381,0,0,0-.992,8.1c-.275,3.7-.4,6.354-.366,7.879a5.621,5.621,0,0,0,.619,2.993,2.8,2.8,0,0,0,2.133.853,9.022,9.022,0,0,0,1.741-.015l.626-8.409-2.534-.183.417-5.606,8.33.6-1.389,18.673-.186.05a18.628,18.628,0,0,1-3.567.5Q693.209,569.2,692.282,569.2Zm-.536-33.742a9.545,9.545,0,0,0-4.579.921,7.219,7.219,0,0,0-3.06,4.492,53.4,53.4,0,0,0-1.561,10.525,56.913,56.913,0,0,0-.062,10.634,7.313,7.313,0,0,0,2.173,4.868,9.945,9.945,0,0,0,5.546,1.694,30.672,30.672,0,0,0,3.931.02,18.7,18.7,0,0,0,3.275-.437l1.321-17.753-7.259-.519-.338,4.531,2.534.183-.7,9.369-.206.034a8.956,8.956,0,0,1-2.072.051A3.3,3.3,0,0,1,688.166,563a6,6,0,0,1-.731-3.3c-.033-1.542.093-4.209.365-7.928a57.647,57.647,0,0,1,1.005-8.192c.4-1.609.975-2.573,1.773-2.945a8.609,8.609,0,0,1,3.928-.329,36.971,36.971,0,0,1,4.861.834l.322-4.314a28.947,28.947,0,0,0-6.44-1.31c-.524-.039-1.026-.056-1.505-.056Z" transform="translate(-681.728 -534.873)" fill="url(#linear-gradient-11)"/>
                </g>
                <g id="Group_20" data-name="Group 20" transform="translate(112.149 2.685)">
                  <path id="Path_42" data-name="Path 42" d="M763.74,574.529l3.485-32.8,13.312,1.361-.552,5.2-7.434-.76-.9,8.439,6.51.665-.552,5.2-6.51-.665-.932,8.775,7.434.76-.552,5.2Z" transform="translate(-763.444 -541.436)" fill="#fff"/>
                  <path id="Path_43" data-name="Path 43" d="M776.206,575.109l-13.846-1.415.028-.268L765.9,540.36l13.846,1.415-.609,5.728-7.434-.76-.84,7.9,6.51.665-.609,5.728-6.509-.666-.874,8.237,7.434.76Zm-13.253-1.894,12.777,1.305.494-4.662-7.434-.76.987-9.307,6.509.665.5-4.661-6.51-.665.953-8.972,7.434.76.5-4.661-12.777-1.305Z" transform="translate(-762.36 -540.36)" fill="url(#linear-gradient-12)"/>
                </g>
              </g>
            </g>
          </g>
        </g>
      </g>
      <g id="Group_32" data-name="Group 32" transform="translate(217.996 361.318)">
        <rect id="Rectangle_9" data-name="Rectangle 9" width="110.753" height="19.12" fill="none" opacity="0.4"/>
        <g id="Group_31" data-name="Group 31" transform="translate(0.781 0.808)">
          <g id="Group_29" data-name="Group 29" transform="translate(0.59 0.542)">
            <g id="Group_26" data-name="Group 26" transform="translate(0 0)">
              <path id="Path_44" data-name="Path 44" d="M291.648,720.489l-1.308-12.926a532.808,532.808,0,0,1,107.225,0l-1.312,12.925A519.636,519.636,0,0,0,291.648,720.489Z" transform="translate(-290.34 -704.859)" fill="url(#radial-gradient-3)"/>
            </g>
            <g id="Group_28" data-name="Group 28" transform="translate(4.298 2.359)">
              <rect id="Rectangle_10" data-name="Rectangle 10" width="99.414" height="11.286" fill="none" opacity="0.4"/>
              <g id="Group_27" data-name="Group 27" transform="translate(0.78 0.819)">
                <path id="Path_45" data-name="Path 45" d="M318.109,735.164l-.251-2.882-2.547.223.251,2.882-1,.088-.575-6.588,1-.088.244,2.826,2.547-.223-.244-2.826.986-.087.575,6.588Z" transform="translate(-313.99 -726.595)" fill="#fff"/>
                <path id="Path_46" data-name="Path 46" d="M352.177,732.619a1.261,1.261,0,0,1-.685-.876,12.622,12.622,0,0,1-.288-2.178,12.778,12.778,0,0,1-.031-2.194,1.272,1.272,0,0,1,.552-.966,5.119,5.119,0,0,1,3.271-.236,1.272,1.272,0,0,1,.69.876,17.9,17.9,0,0,1,.316,4.371,1.282,1.282,0,0,1-.556.966,3.655,3.655,0,0,1-1.62.386A3.586,3.586,0,0,1,352.177,732.619Zm2.559-.9a.756.756,0,0,0,.3-.634,13.047,13.047,0,0,0-.048-1.793,12.833,12.833,0,0,0-.211-1.783.764.764,0,0,0-.384-.584,2.578,2.578,0,0,0-.987-.054,2.531,2.531,0,0,0-.964.195.772.772,0,0,0-.292.634,19.691,19.691,0,0,0,.257,3.576.768.768,0,0,0,.38.584,2.546,2.546,0,0,0,.984.054,2.588,2.588,0,0,0,.968-.2Z" transform="translate(-343.162 -724.635)" fill="#fff"/>
                <path id="Path_47" data-name="Path 47" d="M393.353,729.726l-.281-5.039h-.039l-1.378,5.132-.777.043-1.933-4.945H388.9l.284,5.039-.941.054-.366-6.6,1.4-.079,1.89,4.853h.059l1.341-5.033,1.383-.077.366,6.6Z" transform="translate(-372.013 -722.339)" fill="#fff"/>
                <path id="Path_48" data-name="Path 48" d="M432.3,728.392l-.268-6.608,3.8-.155.034.853-2.815.113.082,1.989,2.431-.1.034.853-2.431.1.084,2.055,2.815-.113.034.853Z" transform="translate(-406.682 -721.208)" fill="#fff"/>
                <path id="Path_49" data-name="Path 49" d="M483.483,726.748l-.015-.826q1.041.086,1.733.073a3.885,3.885,0,0,0,.7-.062.954.954,0,0,0,.406-.172.557.557,0,0,0,.172-.316,2.709,2.709,0,0,0,.032-.544,2.773,2.773,0,0,0-.056-.609.384.384,0,0,0-.194-.256,1.521,1.521,0,0,0-.487-.122l-1.291-.149a1.473,1.473,0,0,1-.775-.273,1.1,1.1,0,0,1-.366-.569,3.778,3.778,0,0,1-.11-.91,2.3,2.3,0,0,1,.223-1.177,1.253,1.253,0,0,1,.691-.58,3.778,3.778,0,0,1,1.175-.175c.327-.006.651,0,.975.023a6.732,6.732,0,0,1,.829.1l.015.808a9.484,9.484,0,0,0-1.584-.087,4.081,4.081,0,0,0-.719.062.924.924,0,0,0-.4.172.527.527,0,0,0-.183.3,2.219,2.219,0,0,0-.034.5,2.546,2.546,0,0,0,.054.547.366.366,0,0,0,.174.244,1.185,1.185,0,0,0,.425.1l1.31.149a2.2,2.2,0,0,1,.715.183.925.925,0,0,1,.423.476,3.123,3.123,0,0,1,.177,1.132,2.812,2.812,0,0,1-.2,1.269,1.181,1.181,0,0,1-.642.609,3.325,3.325,0,0,1-1.136.18,15.772,15.772,0,0,1-2.029-.1Z" transform="translate(-446.885 -719.991)" fill="#fff"/>
                <path id="Path_50" data-name="Path 50" d="M517.983,726.168a1.264,1.264,0,0,1-.625-.919,18.537,18.537,0,0,1-.019-4.387,1.261,1.261,0,0,1,.617-.925,5.119,5.119,0,0,1,3.277-.015,1.28,1.28,0,0,1,.629.919,17.831,17.831,0,0,1,.022,4.387,1.277,1.277,0,0,1-.62.925,3.669,3.669,0,0,1-1.643.277,3.628,3.628,0,0,1-1.637-.262Zm2.612-.724a.767.767,0,0,0,.339-.609,12.728,12.728,0,0,0,.073-1.793,12.947,12.947,0,0,0-.09-1.793.761.761,0,0,0-.344-.609,2.6,2.6,0,0,0-.981-.122,2.544,2.544,0,0,0-.975.129.763.763,0,0,0-.333.609,19.781,19.781,0,0,0,.017,3.587.773.773,0,0,0,.34.609,3.863,3.863,0,0,0,1.95-.011Z" transform="translate(-473.578 -719.66)" fill="#fff"/>
                <path id="Path_51" data-name="Path 51" d="M554.43,726.624l.059-6.614.99.009-.05,5.728,2.489.022-.006.885Z" transform="translate(-502.798 -719.936)" fill="#fff"/>
                <path id="Path_52" data-name="Path 52" d="M588.8,720.45l-.082,3.711a8.87,8.87,0,0,1-.186,1.89,1.219,1.219,0,0,1-.625.826,4.6,4.6,0,0,1-2.965-.067,1.229,1.229,0,0,1-.6-.853,8.583,8.583,0,0,1-.107-1.891l.082-3.711.99.022-.09,4.046a6.583,6.583,0,0,0,.045,1.183.643.643,0,0,0,.311.488,2.035,2.035,0,0,0,.862.149,2,2,0,0,0,.853-.112.636.636,0,0,0,.329-.464,7.121,7.121,0,0,0,.094-1.186l.09-4.046Z" transform="translate(-526.199 -720.201)" fill="#fff"/>
                <path id="Path_53" data-name="Path 53" d="M620.981,727.9l.208-5.728-1.706-.062.032-.885,4.419.161-.032.885-1.706-.062-.208,5.728Z" transform="translate(-553.879 -720.895)" fill="#fff"/>
                <path id="Path_54" data-name="Path 54" d="M652.91,729.225l.313-6.605.99.048-.313,6.605Z" transform="translate(-580.132 -721.985)" fill="#fff"/>
                <path id="Path_55" data-name="Path 55" d="M673.8,730.248a1.262,1.262,0,0,1-.564-.958,18.654,18.654,0,0,1,.257-4.374,1.266,1.266,0,0,1,.673-.885,5.135,5.135,0,0,1,3.272.194,1.277,1.277,0,0,1,.569.958,17.937,17.937,0,0,1-.26,4.377,1.282,1.282,0,0,1-.679.885,5.092,5.092,0,0,1-3.269-.195Zm2.654-.556a.758.758,0,0,0,.375-.589,19.718,19.718,0,0,0,.211-3.579.759.759,0,0,0-.3-.629,2.58,2.58,0,0,0-.975-.183,2.545,2.545,0,0,0-.981.067.77.77,0,0,0-.366.591,12.962,12.962,0,0,0-.187,1.784,12.605,12.605,0,0,0-.023,1.8.763.763,0,0,0,.3.629,3.852,3.852,0,0,0,1.95.113Z" transform="translate(-596.054 -722.942)" fill="#fff"/>
                <path id="Path_56" data-name="Path 56" d="M713.124,732.791l-2.24-4.909h-.039L710.5,732.6l-.958-.071.487-6.6,1.035.077,2.181,4.753h.039l.34-4.574.949.071-.488,6.594Z" transform="translate(-624.601 -724.584)" fill="#fff"/>
                <path id="Path_57" data-name="Path 57" d="M745.83,735.576l.073-.823q1.025.2,1.714.257a3.925,3.925,0,0,0,.7.012,1,1,0,0,0,.42-.122.543.543,0,0,0,.2-.3,2.563,2.563,0,0,0,.09-.536,3,3,0,0,0,.011-.609.385.385,0,0,0-.163-.275,1.463,1.463,0,0,0-.476-.172l-1.267-.285a1.477,1.477,0,0,1-.741-.355,1.083,1.083,0,0,1-.3-.609,3.853,3.853,0,0,1-.011-.917,2.317,2.317,0,0,1,.347-1.147,1.253,1.253,0,0,1,.749-.5,3.753,3.753,0,0,1,1.187-.05c.327.028.646.071.964.129a6.208,6.208,0,0,1,.814.194l-.071.805a9.28,9.28,0,0,0-1.561-.253,4.041,4.041,0,0,0-.721-.015.929.929,0,0,0-.417.122.527.527,0,0,0-.212.275,2.159,2.159,0,0,0-.086.488,2.452,2.452,0,0,0,0,.55.373.373,0,0,0,.146.26,1.217,1.217,0,0,0,.412.149l1.287.288a2.166,2.166,0,0,1,.691.26.911.911,0,0,1,.365.519,3.141,3.141,0,0,1,.054,1.144,2.824,2.824,0,0,1-.338,1.239,1.194,1.194,0,0,1-.7.536,3.4,3.4,0,0,1-1.149.058,16.141,16.141,0,0,1-2.01-.319Z" transform="translate(-653.098 -727.092)" fill="#fff"/>
              </g>
            </g>
          </g>
          <g id="Group_30" data-name="Group 30" transform="translate(0 0)">
            <path id="Path_58" data-name="Path 58" d="M341.864,702.9a530.418,530.418,0,0,1,53.638,2.712l-1.4,12.917a519.576,519.576,0,0,0-104.6,0L288.19,705.6a532.641,532.641,0,0,1,53.673-2.708m0-.536a534.727,534.727,0,0,0-53.671,2.7l-.593.059.054.535,1.308,12.926.054.535.535-.054a519.374,519.374,0,0,1,104.5,0l.535.053.054-.535,1.313-12.926.054-.535-.535-.054a532.866,532.866,0,0,0-53.6-2.705Z" transform="translate(-287.599 -702.356)" fill="url(#linear-gradient-13)"/>
          </g>
        </g>
      </g>
    </g>
  </g>
</svg>
