<svg xmlns="http://www.w3.org/2000/svg" xmlns:xlink="http://www.w3.org/1999/xlink" width="90.362" height="71.998" viewBox="0 0 90.362 71.998">
  <defs>
    <linearGradient id="linear-gradient" y1="0.5" x2="1" y2="0.5" gradientUnits="objectBoundingBox">
      <stop offset="0" stop-color="#fff"/>
      <stop offset="1" stop-color="#c5c7c9"/>
    </linearGradient>
    <radialGradient id="radial-gradient" cx="0.732" cy="-0.083" r="1.163" gradientTransform="translate(0.048) scale(0.903 1)" gradientUnits="objectBoundingBox">
      <stop offset="0" stop-color="#464648"/>
      <stop offset="0.165" stop-color="#7b7d7f"/>
      <stop offset="0.305" stop-color="#464648"/>
      <stop offset="0.522" stop-color="#abadaf"/>
      <stop offset="0.813" stop-color="#464648"/>
      <stop offset="1" stop-color="#7b7d7f"/>
    </radialGradient>
    <linearGradient id="linear-gradient-2" x1="0.793" y1="-0.201" x2="0.183" y2="0.933" gradientUnits="objectBoundingBox">
      <stop offset="0" stop-color="#7b7d7f"/>
      <stop offset="0.187" stop-color="#fff"/>
      <stop offset="0.478" stop-color="#abadaf"/>
      <stop offset="0.696" stop-color="#e0e1e2"/>
      <stop offset="0.835" stop-color="#7b7d7f"/>
      <stop offset="1" stop-color="#abadaf"/>
    </linearGradient>
    <clipPath id="clip-path">
      <path id="Path_21" data-name="Path 21" d="M309.162,300.04c12.013,2.186,23.542,4.315,35.154,6.5-.432,3.844-.7,7.742-.958,11.531-.544,7.95-1.107,16.17-3.2,23.982-1.915,7.13-5.591,12.2-11.238,15.508-4.912,2.876-10.467,3.924-14.929,4.765-1.821.344-3.433.648-4.822,1.035-1.39-.387-3-.691-4.822-1.035-4.463-.842-10.017-1.89-14.93-4.765-5.647-3.305-9.323-8.379-11.238-15.508-2.1-7.812-2.66-16.032-3.2-23.982-.259-3.789-.526-7.686-.958-11.531,11.61-2.181,23.139-4.311,35.152-6.5" transform="translate(-274.01 -300.04)"/>
    </clipPath>
    <linearGradient id="linear-gradient-3" x1="0.099" y1="-0.006" x2="0.895" y2="0.8" gradientUnits="objectBoundingBox">
      <stop offset="0" stop-color="#6d6e70"/>
      <stop offset="1"/>
    </linearGradient>
    <radialGradient id="radial-gradient-2" cx="0.781" cy="-0.865" r="2.334" gradientTransform="translate(0.314) scale(0.372 1)" xlink:href="#radial-gradient"/>
    <linearGradient id="linear-gradient-4" x1="0.901" y1="-0.569" x2="0.249" y2="1.16" xlink:href="#linear-gradient-2"/>
    <linearGradient id="linear-gradient-5" x1="5.002" y1="-2.053" x2="-0.081" y2="0.693" xlink:href="#linear-gradient-2"/>
    <linearGradient id="linear-gradient-6" x1="4.159" y1="-1.702" x2="-0.453" y2="1.064" xlink:href="#linear-gradient-2"/>
    <linearGradient id="linear-gradient-7" x1="4.863" y1="-1.44" x2="-1.378" y2="1.335" xlink:href="#linear-gradient-2"/>
    <linearGradient id="linear-gradient-8" x1="3.949" y1="-1.182" x2="-1.676" y2="1.565" xlink:href="#linear-gradient-2"/>
    <linearGradient id="linear-gradient-9" x1="3.321" y1="-1.011" x2="-2.211" y2="1.78" xlink:href="#linear-gradient-2"/>
    <linearGradient id="linear-gradient-10" x1="5.953" y1="-0.797" x2="-5.782" y2="1.994" xlink:href="#linear-gradient-2"/>
    <linearGradient id="linear-gradient-11" x1="2.559" y1="-0.57" x2="-2.529" y2="2.181" xlink:href="#linear-gradient-2"/>
    <linearGradient id="linear-gradient-12" x1="2.211" y1="-0.356" x2="-3.212" y2="2.357" xlink:href="#linear-gradient-2"/>
    <radialGradient id="radial-gradient-3" cx="0.905" cy="-6.342" r="9.089" gradientTransform="translate(0.427) scale(0.146 1)" xlink:href="#radial-gradient"/>
    <linearGradient id="linear-gradient-13" x1="1.157" y1="-3.709" x2="0.287" y2="1.918" xlink:href="#linear-gradient-2"/>
  </defs>
  <g id="Logo" transform="translate(-199.958 -269.093)">
    <g id="Group_2" data-name="Group 2" transform="translate(205.302 269.093)">
      <rect id="Rectangle_4" data-name="Rectangle 4" width="79.546" height="71.998" fill="none" opacity="0.4"/>
      <g id="Group_1" data-name="Group 1" transform="translate(0.409 0.396)">
        <path id="Path_12" data-name="Path 12" d="M329.038,287.987c-12.827-2.413-25.415-4.738-37.893-7.007-12.478,2.269-25.066,4.594-37.893,7.007a0,0,0,0,0,0,0c1.657,12.51,1.131,25.577,4.51,38.158,5.808,21.623,25.734,20.776,33.385,23.254,7.65-2.478,27.577-1.631,33.384-23.253,3.379-12.582,2.853-25.649,4.51-38.158C329.041,287.988,329.039,287.987,329.038,287.987Z" transform="translate(-251.96 -279.805)" fill="url(#linear-gradient)"/>
        <path id="Path_13" data-name="Path 13" d="M285.105,344.759l-.255-.082a45.806,45.806,0,0,0-5.18-1.16c-4.714-.889-10.58-2-15.985-5.161-6.435-3.766-10.608-9.491-12.76-17.5-2.182-8.122-2.755-16.506-3.31-24.614-.308-4.506-.628-9.166-1.221-13.652l-.1-.781.777-.144c12.508-2.352,24.906-4.645,37.893-7.007l.148-.026.148.026c12.987,2.362,25.382,4.653,37.894,7.007l.767.139-.1.778c-.595,4.492-.915,9.152-1.222,13.657-.555,8.108-1.129,16.492-3.31,24.614-2.153,8.011-6.326,13.737-12.761,17.5-5.406,3.165-11.273,4.271-15.985,5.161a46.03,46.03,0,0,0-5.18,1.16ZM248.13,283.143c.538,4.291.839,8.705,1.133,12.982.55,8.028,1.118,16.33,3.258,24.3,4.608,17.158,18.358,19.753,27.456,21.47a51.085,51.085,0,0,1,5.129,1.133,51.461,51.461,0,0,1,5.129-1.133c9.1-1.717,22.848-4.311,27.456-21.47,2.14-7.966,2.708-16.268,3.258-24.3.292-4.275.595-8.686,1.133-12.982-12.2-2.293-24.309-4.532-36.976-6.835C272.439,278.612,260.334,280.85,248.13,283.143Z" transform="translate(-245.92 -274.294)" fill="url(#radial-gradient)"/>
        <path id="Path_14" data-name="Path 14" d="M282.675,272.426l.148.026c12.987,2.362,25.382,4.653,37.894,7.007l.766.139-.1.778c-.595,4.492-.915,9.152-1.222,13.657-.555,8.108-1.129,16.492-3.31,24.614-2.15,8.011-6.324,13.737-12.758,17.5-5.406,3.165-11.273,4.271-15.985,5.161a46.032,46.032,0,0,0-5.18,1.16l-.255.082-.255-.082a45.813,45.813,0,0,0-5.18-1.16c-4.714-.889-10.58-2-15.985-5.161-6.435-3.766-10.608-9.491-12.76-17.5-2.182-8.122-2.755-16.506-3.311-24.614-.308-4.507-.628-9.166-1.221-13.652l-.1-.781.777-.144c12.508-2.352,24.906-4.645,37.893-7.007l.144-.025m0,68.4a51.46,51.46,0,0,1,5.129-1.133c9.1-1.717,22.848-4.311,27.456-21.47,2.14-7.966,2.708-16.268,3.258-24.3.292-4.275.595-8.687,1.133-12.982-12.2-2.293-24.309-4.532-36.976-6.835-12.667,2.3-24.771,4.541-36.976,6.835.538,4.291.839,8.705,1.133,12.982.55,8.028,1.118,16.33,3.258,24.3,4.608,17.158,18.358,19.753,27.456,21.47a51.1,51.1,0,0,1,5.129,1.133m0-68.731-.059.011-.148.026c-13,2.363-25.392,4.656-37.894,7.007l-.776.144-.308.057.041.311.1.781c.593,4.475.912,9.129,1.22,13.63.556,8.124,1.131,16.523,3.321,24.676,2.175,8.1,6.4,13.889,12.911,17.7,5.455,3.193,11.352,4.307,16.091,5.2a46,46,0,0,1,5.141,1.15l.255.082.1.033.1-.033.255-.082a45.461,45.461,0,0,1,5.139-1.15c4.74-.895,10.638-2.007,16.094-5.2,6.514-3.813,10.736-9.6,12.911-17.7,2.19-8.153,2.765-16.552,3.321-24.676.308-4.5.626-9.156,1.22-13.637l.1-.782.037-.309-.307-.056-.766-.139c-12.5-2.351-24.9-4.643-37.894-7.007l-.148-.026-.059-.011Zm-36.609,9.117c12.084-2.27,24.063-4.485,36.609-6.766,12.547,2.282,24.525,4.5,36.611,6.766-.515,4.206-.81,8.519-1.1,12.691-.548,8.014-1.115,16.3-3.247,24.236-4.555,16.957-18.182,19.529-27.2,21.229-1.961.37-3.661.691-5.068,1.111-1.407-.422-3.106-.741-5.067-1.111-9.018-1.7-22.646-4.273-27.2-21.231-2.132-7.936-2.7-16.222-3.247-24.235-.285-4.175-.58-8.487-1.1-12.691Z" transform="translate(-243.49 -272.09)" fill="url(#linear-gradient-2)"/>
      </g>
    </g>
    <g id="Group_8" data-name="Group 8" transform="translate(209.744 273.183)">
      <g id="Group_6" data-name="Group 6" transform="translate(0 0)" clip-path="url(#clip-path)">
        <rect id="Rectangle_5" data-name="Rectangle 5" width="69.175" height="26.103" transform="translate(0.649 0.937)" fill="none" opacity="0.4"/>
        <g id="Group_5" data-name="Group 5" transform="translate(1.142 1.443)">
          <g id="Group_3" data-name="Group 3">
            <path id="Path_15" data-name="Path 15" d="M525.907,359.5l-.636,3.178-.847,1.483v1.06L524,366.707l.424,1.06-.152.341a21.629,21.629,0,0,0,2.995-6.5c-.272-1.323-.511-2.524-.511-2.524Z" transform="translate(-492.104 -352.721)" fill="#549659"/>
            <path id="Path_16" data-name="Path 16" d="M446.189,389.171l.424.847-2.331,2.543-2.331,2.118a34.046,34.046,0,0,1-1.751,3.62l1.355-.045q1.9-.063,3.789-.107l.846-.712,1.06-1.7s-3.178,1.483-3.6,1.7c-.052.025-.005-.036.112-.163.859-.924,5.61-5.347,5.61-5.347a8.448,8.448,0,0,0-2.331,0c-.424.211,2.543-7.205,2.543-7.205Z" transform="translate(-419.379 -374.972)" fill="#549659"/>
            <path id="Path_17" data-name="Path 17" d="M374.6,447.684l-.424-.424-4.027,3.6-2.331,1.907-.341.284q1.245-.077,2.49-.148l.181-.136-.211-.847Z" transform="translate(-356.269 -429.247)" fill="#549659"/>
            <path id="Path_18" data-name="Path 18" d="M318.148,310.96l-1.271,1.907-1.166,1.907-.847-.636-.4.8-1.717,3.433-1.06-.424-5.934,6.569-1.271-1.7-1.06,1.271-1.271.424-1.907-1.483-5.51,4.45-1.7-.847-1.7,1.483-2.755-1.06-1.271.847-1.271-1.271-1.7,2.755-1.06.211-.637.637c.127,1.779.263,3.568.426,5.359q2.369-.22,4.744-.408l-.188-.5s1.06-2.755,1.483-2.967-4.662,1.7-4.662,1.7l1.7-1.7,4.238-1.7.122-.122,1.362-.408s-1.607,4.177-2.022,5.537l.416-.029c.152-.167.33-.37.523-.6l.657.493,6.145-4.662-.847-.211,1.907-1.7-1.483.211,2.967-2.118H298.8l1.339-1.166,1.7,2.755a33.316,33.316,0,0,0,2.543-4.027c0-.424.424,1.06.424,1.06l1.271.424,4.323-4.941c-1.947,2.525-4.958,6.743-4.958,6.743l-1.271-.636-1.483,2.543s-.211-1.06-1.907,1.907a13.436,13.436,0,0,1-2.829,3.439q1.727-.089,3.452-.16l5.311-6.67.847-1.907,4.45-6.357v-.741l1.483.636,1.7-4.027.424,2.543,1.7-3.391s.424.106.636-.53c.1-.305.35.148.581.7A17.709,17.709,0,0,0,318.148,310.96Z" transform="translate(-282.65 -310.96)" fill="#549659"/>
          </g>
          <g id="Group_4" data-name="Group 4" transform="translate(30.226 0.001)">
            <path id="Path_19" data-name="Path 19" d="M512.616,386.249l.365,1.462-.153.658,2.331-.847.012.114c-.572.618-1.266,1.353-1.919,2.006l.847-.211s-1.832,1.939-2.729,2.975q1.911-.02,3.818-.022,3.935,0,7.882.087v-.521l-1.907-.424-.149-3.863s-.47.612-.47.189l-.377-3.674,1.208,2.9.769,1.341-.346,2.261s.628-.143.628.281,1.7.778,1.7.778c-.09.178-.254.471-.383.748q1.974.048,3.951.116c-.94-1.758-2.367-4.512-2.367-5.08,0-.847-.847,1.06-.847,1.06l-.636.847-3.178-6.781-.847.424-1.271-3.814a11.113,11.113,0,0,0-1.483,2.331c0,.239-.406-1.688-.76-3.408a21.58,21.58,0,0,1-2.995,6.5Z" transform="translate(-511.37 -369.298)" fill="#348f3a"/>
            <path id="Path_20" data-name="Path 20" d="M582.649,333.008l-.43-.508-.63-.34-1.065-1.779-1.689.507-1.06.847-1.483-4.874-2.754,2.967-.7.469-2.262-4.072-1.271.847a20.976,20.976,0,0,1-1.907-3.178c0-.354-3.246,3.424-4.32,4.685l-7.016-8.5-.847.211-2.543-5.721-1.377-3.6a17.889,17.889,0,0,1,.37,3.669c.25.6.478,1.312.478,1.312l3.178,5.192.636.106,7.416,12.4.636-2.437,1.415,3.185q.809.036,1.616.074l-1.052-1.633.352.176.636-3.391-.847-.636.424-1.06.636-1.907,1.907,6.992V328.77l1.06,1.7.424-1.06.735,2.352-.735.827.636,1.907-.024.194q.93.055,1.858.116l2.828-4.336,1.7,3.391s-.058.646-.053,1.258q1.1.083,2.2.173l.4-.8-1.271-.424.933-1.119.763-.152.424,1.483.847-.847,1.254,2.149.218.02q.121-1.344.243-2.738Z" transform="translate(-546.014 -310.97)" fill="#348f3a"/>
          </g>
        </g>
      </g>
      <g id="Group_7" data-name="Group 7" transform="translate(0 0)" clip-path="url(#clip-path)">
        <path id="Path_22" data-name="Path 22" d="M309.162,300.04c12.013,2.186,23.542,4.315,35.154,6.5-.432,3.844-.7,7.742-.958,11.531-.544,7.95-1.107,16.17-3.2,23.982-1.915,7.13-5.591,12.2-11.238,15.508-4.912,2.876-10.467,3.924-14.929,4.765-1.821.344-3.433.648-4.822,1.035-1.39-.387-3-.691-4.822-1.035-4.463-.842-10.017-1.89-14.93-4.765-5.647-3.305-9.323-8.379-11.238-15.508-2.1-7.812-2.66-16.032-3.2-23.982-.259-3.789-.526-7.686-.958-11.531,11.61-2.181,23.139-4.311,35.152-6.5" transform="translate(-274.01 -300.04)" opacity="0.1" fill="url(#linear-gradient-3)"/>
      </g>
    </g>
    <g id="Group_25" data-name="Group 25" transform="translate(199.958 298.543)">
      <rect id="Rectangle_6" data-name="Rectangle 6" width="90.362" height="34.984" transform="translate(0 0)" fill="none" opacity="0.4"/>
      <g id="Group_24" data-name="Group 24" transform="translate(0.485 0.49)">
        <g id="Group_10" data-name="Group 10">
          <g id="Group_9" data-name="Group 9" transform="translate(0.366 0.33)">
            <path id="Path_24" data-name="Path 24" d="M298.054,507.06a325.364,325.364,0,0,0-83.177,0l-1.587.2.19,1.7,2.769,24.792.19,1.7,1.587-.2a299.257,299.257,0,0,1,76.862,0l1.587.2.192-1.7,2.781-24.791.192-1.7Z" transform="translate(-212.379 -503.564)" fill="#5e366a"/>
            <path id="Path_25" data-name="Path 25" d="M291.226,530.965l-2.421-.313a298.424,298.424,0,0,0-76.652,0l-2.421.312-3.332-29.84,2.393-.308a326.216,326.216,0,0,1,83.388,0l2.393.309Zm-40.7-4.435a301.64,301.64,0,0,1,38.5,2.484l.755.1,2.979-26.556-.782-.1a324.6,324.6,0,0,0-82.965,0l-.782.1,2.967,26.558.755-.1A303.3,303.3,0,0,1,250.521,526.529Z" transform="translate(-206.4 -498.14)" fill="url(#radial-gradient-2)"/>
          </g>
          <path id="Path_26" data-name="Path 26" d="M248.116,495.97a326.23,326.23,0,0,1,41.66,2.676l2.393.309-3.347,29.839-2.421-.313a298.432,298.432,0,0,0-76.652,0l-2.421.312L204,498.953l2.393-.308a328.143,328.143,0,0,1,41.727-2.675m-39.332,30.97.755-.1a300.107,300.107,0,0,1,77.074,0l.755.1,2.979-26.556-.782-.1a324.6,324.6,0,0,0-82.965,0l-.782.1,2.968,26.558m39.332-31.3a328.587,328.587,0,0,0-41.77,2.677l-2.393.308-.322.041.036.322L207,528.831l.037.334.333-.042,2.421-.312a298.09,298.09,0,0,1,76.568,0l2.421.313.333.044.037-.334,3.347-29.839.036-.322-.322-.042-2.393-.309a326.321,326.321,0,0,0-41.7-2.68Zm-41.934,5.03.46-.059a324.258,324.258,0,0,1,82.881,0l.46.059-2.9,25.9-.422-.054a300.467,300.467,0,0,0-77.16,0l-.422.054-2.893-25.9Z" transform="translate(-203.63 -495.64)" fill="url(#linear-gradient-4)"/>
        </g>
        <g id="Group_23" data-name="Group 23" transform="translate(3.606 3.126)">
          <g id="Group_12" data-name="Group 12">
            <rect id="Rectangle_7" data-name="Rectangle 7" width="82.623" height="25.849" fill="none" opacity="0.4"/>
            <g id="Group_11" data-name="Group 11" transform="translate(0.508 0.491)">
              <path id="Path_27" data-name="Path 27" d="M315.382,530.406l.51-4.808-9.8-1-.474,4.462.3-3.973-.579-.208a16.084,16.084,0,0,0-2.1-.572,16.79,16.79,0,0,0-2.24-.33,7.763,7.763,0,0,0-4.29.653,5.354,5.354,0,0,0-2.343,3.336c-.136.453-.26.966-.374,1.549l.283-5.743-4.639-.219v-.042l-11.685-.289-.007.276-.176-.063a8.2,8.2,0,0,0-1.573-.3,16.279,16.279,0,0,0-2.584-.116,8.02,8.02,0,0,0-3.213.659,4.223,4.223,0,0,0-2.042,2.206l-.092-2.6-9.849.338.2,5.581a13.054,13.054,0,0,0-.447-2.134,4.345,4.345,0,0,0-1.816-2.441,5.883,5.883,0,0,0-3.552-.662l-6.478.426.231,3.379a4.428,4.428,0,0,0-1.849-2.289,5.805,5.805,0,0,0-3.6-.575l-6.341.63,2.17,21,.083.8,5.229-.521-.682-6.6,1.106-.11a5.569,5.569,0,0,0,3.455-1.356,4.446,4.446,0,0,0,1.063-1.681l.628,9.187,5.245-.345-.493-7.21.266-.017,2.042,6.49.19.607,4.131-.272v.013l9.849-.338-.007-.192.054.013a14.615,14.615,0,0,0,2.24.33,22.507,22.507,0,0,0,2.375.073,7.551,7.551,0,0,0,3.2-.666,4.107,4.107,0,0,0,1.965-2.409,16.33,16.33,0,0,0,.015-7.9,3.742,3.742,0,0,0-1.327-1.9,4.678,4.678,0,0,0-1.874-.7l-2.075-.412a1.385,1.385,0,0,1-.43-.132.656.656,0,0,1-.057-.185,9.259,9.259,0,0,1-.1-1.357,8.434,8.434,0,0,1,.03-1.23.817.817,0,0,1,.132-.386.658.658,0,0,1,.332-.164,5.581,5.581,0,0,1,1.287-.144c.57-.016,1.117-.007,1.626.025.628.041.9.073,1.019.093l.383.063,0,.106,3.215.079L280.6,545.2l5.254.131.437-17.015,2.519.062-.8,16.219-.04.81,5.22.247.192-3.9a5.162,5.162,0,0,0,1.631,3.254,6.917,6.917,0,0,0,3.961,1.261,20.071,20.071,0,0,0,2.544.013,12.126,12.126,0,0,0,2.3-.324l-.045.427,9.8,1,.51-4.808-4.574-.468.4-3.789,4.007.41.51-4.808-4.006-.41.381-3.583Zm-10.206,2.8-6.251-.448-.353,4.732,1.559.112-.295,3.963c-.132,0-.275-.008-.426-.019a1.264,1.264,0,0,1-.841-.267,2.852,2.852,0,0,1-.254-1.471c-.02-.918.056-2.528.225-4.787a35.036,35.036,0,0,1,.592-4.879c.25-1.01.547-1.159.559-1.164a2.87,2.87,0,0,1,1.129-.144c.239,0,.51.011.8.032a22.944,22.944,0,0,1,3.033.534l.9.2Zm-35.928,7.286-.377-.025,0-.114-4.6.159-.136-3.806,4.025-.139-.133-3.724a7.939,7.939,0,0,0,.308,1.177,2.836,2.836,0,0,0,2.227,2.015l2.417.435h0a2.462,2.462,0,0,1,.887.256.527.527,0,0,1,.139.291,9.859,9.859,0,0,1,.137,1.668,3.471,3.471,0,0,1-.172,1.652.584.584,0,0,1-.289.152,5.274,5.274,0,0,1-1.109.114C271.8,540.625,270.68,540.588,269.248,540.493Zm-1.487-10.485q.028.95.108,1.731l-3.908.135-.128-3.6,3.982-.137A15.477,15.477,0,0,0,267.762,530.007Zm-10.2,7.065a4.17,4.17,0,0,0,1.123-2.28c.038-.226.069-.468.094-.726l.259,7.242Zm-3.953-3.69a.909.909,0,0,1-.1.4,1.313,1.313,0,0,1-.644.139l-.634.042-.348-5.1.629-.041c.078-.005.151-.008.219-.008a1.048,1.048,0,0,1,.433.058.818.818,0,0,1,.16.394,22.42,22.42,0,0,1,.281,4.109Zm-11.326,1.326a.865.865,0,0,1-.108.489,1.161,1.161,0,0,1-.6.159l-.513.052-.576-5.58.507-.05a2.837,2.837,0,0,1,.285-.016.813.813,0,0,1,.355.05.9.9,0,0,1,.192.438,17.538,17.538,0,0,1,.326,2.219A18.112,18.112,0,0,1,242.287,534.708Z" transform="translate(-234.76 -523.01)" fill="#626366"/>
            </g>
          </g>
          <g id="Group_22" data-name="Group 22" transform="translate(0.729 0.634)">
            <rect id="Rectangle_8" data-name="Rectangle 8" width="81.164" height="24.517" fill="none" opacity="0.4"/>
            <g id="Group_21" data-name="Group 21" transform="translate(0.484 0.499)">
              <g id="Group_13" data-name="Group 13" transform="translate(0 1.851)">
                <path id="Path_28" data-name="Path 28" d="M241.48,543.716l5.533-.551a5.027,5.027,0,0,1,3.1.463,3.691,3.691,0,0,1,1.571,2.052,17.819,17.819,0,0,1,.724,3.8,18.08,18.08,0,0,1,.073,3.773,3.853,3.853,0,0,1-1.1,2.378,4.8,4.8,0,0,1-2.966,1.126l-1.914.19.682,6.6-3.618.361Zm6.008,9.9a1.791,1.791,0,0,0,1.093-.39,1.514,1.514,0,0,0,.348-1.028,26.444,26.444,0,0,0-.485-4.7,1.459,1.459,0,0,0-.548-.924,1.876,1.876,0,0,0-1.148-.152l-1.316.131.743,7.19Z" transform="translate(-241.298 -542.955)" fill="#fff"/>
                <path id="Path_29" data-name="Path 29" d="M242.221,563.012l-2.121-20.52,5.7-.567a5.215,5.215,0,0,1,3.2.485,3.864,3.864,0,0,1,1.643,2.141,18.122,18.122,0,0,1,.733,3.834,18.33,18.33,0,0,1,.073,3.809,4.027,4.027,0,0,1-1.147,2.477,4.964,4.964,0,0,1-3.065,1.172l-1.748.174.682,6.6Zm-1.758-20.224,2.052,19.863,3.289-.328-.682-6.6,2.079-.207a4.658,4.658,0,0,0,2.865-1.078,3.7,3.7,0,0,0,1.051-2.278,18.016,18.016,0,0,0-.073-3.737,17.79,17.79,0,0,0-.716-3.761,3.542,3.542,0,0,0-1.5-1.965,4.9,4.9,0,0,0-3-.439Zm4.364,10.061-.777-7.518,1.481-.148a2,2,0,0,1,1.251.177,1.608,1.608,0,0,1,.621,1.023,26.653,26.653,0,0,1,.49,4.744,1.673,1.673,0,0,1-.4,1.138,1.921,1.921,0,0,1-1.193.437Zm-.415-7.222.71,6.861,1.152-.115a1.646,1.646,0,0,0,.992-.344,1.368,1.368,0,0,0,.3-.918,26.406,26.406,0,0,0-.481-4.648,1.315,1.315,0,0,0-.476-.825,1.734,1.734,0,0,0-1.045-.128Z" transform="translate(-240.1 -541.879)" fill="url(#linear-gradient-5)"/>
              </g>
              <g id="Group_14" data-name="Group 14" transform="translate(11.537 0.936)">
                <path id="Path_30" data-name="Path 30" d="M337.209,556.374l-2.232-7.1-.059,0-1.649.108.493,7.21-3.629.239-1.382-20.25,5.668-.373a5.105,5.105,0,0,1,3.065.538,3.542,3.542,0,0,1,1.477,2,20.655,20.655,0,0,1,.5,7.344,3.294,3.294,0,0,1-1.267,2.167l2.736,7.862ZM335.6,545.85a1.351,1.351,0,0,0,.387-.957,15.777,15.777,0,0,0-.044-2.185,16.075,16.075,0,0,0-.254-2.171,1.362,1.362,0,0,0-.513-.9,1.96,1.96,0,0,0-1.142-.176l-1.439.1.459,6.711,1.439-.1A1.953,1.953,0,0,0,335.6,545.85Z" transform="translate(-328.572 -536.03)" fill="#fff"/>
                <path id="Path_31" data-name="Path 31" d="M328.806,555.94l-.012-.164L327.4,535.36l5.835-.383a5.285,5.285,0,0,1,3.164.563,3.714,3.714,0,0,1,1.546,2.092,20.8,20.8,0,0,1,.506,7.422,3.478,3.478,0,0,1-1.236,2.2l2.769,7.954-4.065.267-2.232-7.1-1.415.093.493,7.21Zm-1.053-20.271,1.36,19.92,3.3-.217-.493-7.21,2-.132,2.232,7.1,3.373-.222-2.705-7.771.1-.073a3.144,3.144,0,0,0,1.2-2.063,20.5,20.5,0,0,0-.5-7.266,3.4,3.4,0,0,0-1.409-1.912,4.984,4.984,0,0,0-2.966-.513Zm3.977,9.7-.481-7.04,1.6-.106a2.1,2.1,0,0,1,1.241.2,1.519,1.519,0,0,1,.587,1,16.314,16.314,0,0,1,.258,2.2,16.134,16.134,0,0,1,.044,2.21,1.508,1.508,0,0,1-.445,1.069h0a2.086,2.086,0,0,1-1.2.362Zm-.128-6.732.436,6.38,1.275-.083a1.81,1.81,0,0,0,1.012-.287h0a1.209,1.209,0,0,0,.328-.844,15.845,15.845,0,0,0-.044-2.159,16.064,16.064,0,0,0-.25-2.146,1.212,1.212,0,0,0-.44-.794,1.825,1.825,0,0,0-1.043-.151Z" transform="translate(-327.4 -534.956)" fill="url(#linear-gradient-6)"/>
              </g>
              <g id="Group_15" data-name="Group 15" transform="translate(23.612 0.296)">
                <path id="Path_32" data-name="Path 32" d="M420.774,551.976l-.724-20.283,8.232-.283.115,3.213-4.6.159.186,5.218,4.025-.139.115,3.214-4.025.139.194,5.425,4.6-.159.115,3.214Z" transform="translate(-419.881 -531.238)" fill="#fff"/>
                <path id="Path_33" data-name="Path 33" d="M419.5,551.018l-.005-.165-.73-20.448,8.561-.295.127,3.543-4.6.159.174,4.887,4.025-.139.127,3.543-4.027.141.182,5.094,4.6-.159.127,3.543Zm-.394-20.294.712,19.953,7.9-.271-.1-2.884-4.6.159-.206-5.754,4.025-.139-.1-2.884-4.025.139-.2-5.548,4.6-.159-.1-2.884Z" transform="translate(-418.77 -530.11)" fill="url(#linear-gradient-7)"/>
              </g>
              <g id="Group_16" data-name="Group 16" transform="translate(32.935)">
                <path id="Path_34" data-name="Path 34" d="M493.365,549.852a13.876,13.876,0,0,1-2.114-.31l-.083-2.919q2.2.147,3.4.114a6.108,6.108,0,0,0,1.289-.139,1.359,1.359,0,0,0,.71-.418,3.744,3.744,0,0,0,.358-2.194,10.806,10.806,0,0,0-.157-1.825,1.237,1.237,0,0,0-.459-.769,3.188,3.188,0,0,0-1.215-.4l-2.418-.435a2.051,2.051,0,0,1-1.606-1.491,12.948,12.948,0,0,1-.529-3.763,9.121,9.121,0,0,1,.5-3.717,3.447,3.447,0,0,1,1.676-1.861,7.179,7.179,0,0,1,2.885-.58,15.432,15.432,0,0,1,2.454.11,8.931,8.931,0,0,1,1.406.256l.085,2.948c-.2-.033-.568-.067-1.1-.1s-1.1-.044-1.7-.028a6.418,6.418,0,0,0-1.484.173,1.4,1.4,0,0,0-.755.448,1.582,1.582,0,0,0-.293.776,9.38,9.38,0,0,0-.037,1.359,10.224,10.224,0,0,0,.118,1.487,1.065,1.065,0,0,0,.334.654,1.79,1.79,0,0,0,.79.3l2.087.415a3.864,3.864,0,0,1,1.565.576,2.98,2.98,0,0,1,1.02,1.507,15.7,15.7,0,0,1-.016,7.348,3.323,3.323,0,0,1-1.567,1.961,6.829,6.829,0,0,1-2.856.58A20.823,20.823,0,0,1,493.365,549.852Z" transform="translate(-490.374 -528.974)" fill="#fff"/>
                <path id="Path_35" data-name="Path 35" d="M494.111,548.992c-.57,0-1.179-.025-1.818-.077a14.007,14.007,0,0,1-2.14-.315l-.123-.029-.092-3.227.181.012c1.454.1,2.592.135,3.386.112a5.971,5.971,0,0,0,1.253-.133,1.2,1.2,0,0,0,.626-.366,3.476,3.476,0,0,0,.318-2.081,10.622,10.622,0,0,0-.153-1.793,1.076,1.076,0,0,0-.392-.671,3.057,3.057,0,0,0-1.146-.366l-2.418-.436a2.217,2.217,0,0,1-1.733-1.6,13.152,13.152,0,0,1-.538-3.814,9.308,9.308,0,0,1,.509-3.786,3.618,3.618,0,0,1,1.756-1.945,7.375,7.375,0,0,1,2.952-.6,15.621,15.621,0,0,1,2.481.111,8.912,8.912,0,0,1,1.439.264l.106.038.093,3.262-.2-.033c-.194-.033-.559-.066-1.084-.1s-1.1-.042-1.685-.026a6.293,6.293,0,0,0-1.443.168,1.236,1.236,0,0,0-.667.39,1.428,1.428,0,0,0-.26.7,9.216,9.216,0,0,0-.036,1.332,10.285,10.285,0,0,0,.115,1.46.918.918,0,0,0,.276.558,1.657,1.657,0,0,0,.718.27l2.088.415a4.042,4.042,0,0,1,1.625.6,3.136,3.136,0,0,1,1.082,1.587,15.8,15.8,0,0,1-.016,7.461,3.487,3.487,0,0,1-1.649,2.052,7.014,7.014,0,0,1-2.926.6C494.439,548.989,494.276,548.992,494.111,548.992Zm-3.758-.685a14.066,14.066,0,0,0,1.965.278h0a21.608,21.608,0,0,0,2.269.07,6.707,6.707,0,0,0,2.786-.563,3.172,3.172,0,0,0,1.487-1.87,15.568,15.568,0,0,0,.016-7.239,2.828,2.828,0,0,0-.957-1.423,3.725,3.725,0,0,0-1.5-.55l-2.093-.416a1.93,1.93,0,0,1-.863-.337,1.231,1.231,0,0,1-.392-.752,10.311,10.311,0,0,1-.12-1.513,9.348,9.348,0,0,1,.038-1.385,1.755,1.755,0,0,1,.326-.855,1.553,1.553,0,0,1,.841-.506,6.607,6.607,0,0,1,1.524-.18c.6-.017,1.176-.007,1.715.028.4.026.7.052.92.077l-.075-2.635a11.273,11.273,0,0,0-1.266-.215,15.42,15.42,0,0,0-2.428-.108,7.075,7.075,0,0,0-2.819.564,3.3,3.3,0,0,0-1.6,1.776,9,9,0,0,0-.482,3.647,12.858,12.858,0,0,0,.518,3.712,1.886,1.886,0,0,0,1.48,1.384l2.418.435a3.258,3.258,0,0,1,1.281.423,1.411,1.411,0,0,1,.523.867,10.845,10.845,0,0,1,.161,1.858,3.821,3.821,0,0,1-.394,2.3,1.532,1.532,0,0,1-.8.476,6.237,6.237,0,0,1-1.326.144c-.77.021-1.858-.013-3.235-.1Z" transform="translate(-489.314 -527.872)" fill="url(#linear-gradient-8)"/>
              </g>
              <g id="Group_17" data-name="Group 17" transform="translate(43.014 0.226)">
                <path id="Path_36" data-name="Path 36" d="M569.638,551.228l.438-17.015-3.215-.079.085-3.273,10.066.25-.084,3.273-3.215-.079-.437,17.015Z" transform="translate(-566.691 -530.691)" fill="#fff"/>
                <path id="Path_37" data-name="Path 37" d="M572.324,550.376l-3.966-.1.438-17.015-3.215-.079.093-3.6,10.4.258-.093,3.6-3.215-.079Zm-3.628-.42,3.307.082.437-17.015,3.215.079.075-2.943-9.737-.242-.075,2.943,3.215.079Z" transform="translate(-565.58 -529.58)" fill="url(#linear-gradient-9)"/>
              </g>
              <g id="Group_18" data-name="Group 18" transform="translate(53.18 0.543)">
                <path id="Path_38" data-name="Path 38" d="M643.82,553.561l1-20.271,3.6.17-1,20.271Z" transform="translate(-643.647 -533.117)" fill="#fff"/>
                <path id="Path_39" data-name="Path 39" d="M646.443,552.768l-3.933-.186,1.012-20.6,3.933.186Zm-3.587-.5,3.273.155.981-19.941-3.273-.155Z" transform="translate(-642.51 -531.98)" fill="url(#linear-gradient-10)"/>
              </g>
              <g id="Group_19" data-name="Group 19" transform="translate(58.363 0.93)">
                <path id="Path_40" data-name="Path 40" d="M688.429,548.154l.233-3.119,4.8.344-.834,11.209a11.21,11.21,0,0,1-2.162.3,19.216,19.216,0,0,1-2.441-.012,6.237,6.237,0,0,1-3.506-1.08,4.635,4.635,0,0,1-1.4-3.1,35.018,35.018,0,0,1,.037-6.579,32.837,32.837,0,0,1,.967-6.511,4.575,4.575,0,0,1,1.961-2.861,7,7,0,0,1,3.839-.552,15.965,15.965,0,0,1,2.132.316,15.457,15.457,0,0,1,1.994.542l-.221,2.971a23.409,23.409,0,0,0-3.153-.551,5.227,5.227,0,0,0-2.335.188q-.656.307-1,1.7a35.239,35.239,0,0,0-.615,5.014q-.256,3.441-.226,4.863a3.581,3.581,0,0,0,.414,1.937,1.865,1.865,0,0,0,1.433.591,5.331,5.331,0,0,0,1.238-.029l.407-5.473Z" transform="translate(-682.818 -535.995)" fill="#fff"/>
                <path id="Path_41" data-name="Path 41" d="M688.224,556.008c-.445,0-.881-.015-1.3-.045a6.421,6.421,0,0,1-3.6-1.117,4.8,4.8,0,0,1-1.455-3.209,35.271,35.271,0,0,1,.037-6.612,33.145,33.145,0,0,1,.974-6.547,4.752,4.752,0,0,1,2.039-2.958,7.2,7.2,0,0,1,3.93-.574,16.406,16.406,0,0,1,2.154.318,15.548,15.548,0,0,1,2.017.549l.118.042-.244,3.288-.186-.042a23.476,23.476,0,0,0-3.129-.548,5.129,5.129,0,0,0-2.253.172c-.388.182-.7.718-.911,1.592a35.311,35.311,0,0,0-.611,4.986c-.169,2.278-.246,3.911-.226,4.849a3.46,3.46,0,0,0,.381,1.842,1.728,1.728,0,0,0,1.312.525,5.555,5.555,0,0,0,1.072-.009l.386-5.175-1.559-.112.256-3.448,5.126.367-.855,11.492-.115.03a11.46,11.46,0,0,1-2.2.309Q688.794,556.009,688.224,556.008Zm-.33-20.765a5.874,5.874,0,0,0-2.818.567,4.443,4.443,0,0,0-1.883,2.765,32.868,32.868,0,0,0-.961,6.477,35.024,35.024,0,0,0-.038,6.544,4.5,4.5,0,0,0,1.337,3,6.12,6.12,0,0,0,3.414,1.043,18.87,18.87,0,0,0,2.42.012,11.511,11.511,0,0,0,2.015-.27l.813-10.925-4.467-.32-.207,2.788,1.559.112-.43,5.766-.127.021a5.517,5.517,0,0,1-1.278.032,2.03,2.03,0,0,1-1.554-.657,3.689,3.689,0,0,1-.447-2.033c-.02-.949.057-2.59.227-4.879a35.469,35.469,0,0,1,.618-5.042c.245-.99.6-1.583,1.092-1.813a5.3,5.3,0,0,1,2.417-.2,22.755,22.755,0,0,1,2.992.513l.2-2.655a17.814,17.814,0,0,0-3.963-.806C688.5,535.253,688.188,535.243,687.893,535.243Z" transform="translate(-681.73 -534.913)" fill="url(#linear-gradient-11)"/>
              </g>
              <g id="Group_20" data-name="Group 20" transform="translate(69.019 1.65)">
                <path id="Path_42" data-name="Path 42" d="M763.74,561.915l2.144-20.185,8.192.838-.34,3.2-4.574-.468-.551,5.194,4.007.41-.34,3.2-4.007-.41-.574,5.4,4.574.468-.34,3.2Z" transform="translate(-763.558 -541.549)" fill="#fff"/>
                <path id="Path_43" data-name="Path 43" d="M770.881,561.745l-8.521-.871.017-.165,2.161-20.349,8.521.871-.374,3.527-4.574-.468-.517,4.865,4.007.41-.374,3.527-4.006-.41-.538,5.069,4.574.468Zm-8.157-1.166,7.863.8.3-2.869-4.574-.468.608-5.728,4.006.41.305-2.869-4.007-.41.587-5.521,4.574.468.305-2.869-7.863-.8Z" transform="translate(-762.36 -540.36)" fill="url(#linear-gradient-12)"/>
              </g>
            </g>
          </g>
        </g>
      </g>
    </g>
    <g id="Group_32" data-name="Group 32" transform="translate(211.059 325.851)">
      <rect id="Rectangle_9" data-name="Rectangle 9" width="68.16" height="11.767" transform="translate(0 0)" fill="none" opacity="0.4"/>
      <g id="Group_31" data-name="Group 31" transform="translate(0.481 0.5)">
        <g id="Group_29" data-name="Group 29" transform="translate(0.362 0.33)">
          <g id="Group_26" data-name="Group 26">
            <path id="Path_44" data-name="Path 44" d="M291.145,714.477l-.8-7.954a327.909,327.909,0,0,1,65.989,0l-.807,7.954A319.8,319.8,0,0,0,291.145,714.477Z" transform="translate(-290.34 -704.858)" fill="url(#radial-gradient-3)"/>
          </g>
          <g id="Group_28" data-name="Group 28" transform="translate(2.645 1.453)">
            <rect id="Rectangle_10" data-name="Rectangle 10" width="61.182" height="6.946" fill="none" opacity="0.4"/>
            <g id="Group_27" data-name="Group 27" transform="translate(0.48 0.503)">
              <path id="Path_45" data-name="Path 45" d="M316.525,732.6l-.155-1.773-1.567.137.155,1.774-.613.054-.354-4.055.613-.054.152,1.739,1.567-.137-.152-1.739.607-.053.354,4.055Z" transform="translate(-313.99 -727.323)" fill="#fff"/>
              <path id="Path_46" data-name="Path 46" d="M351.778,730.073a.777.777,0,0,1-.422-.539,7.763,7.763,0,0,1-.177-1.34,7.864,7.864,0,0,1-.018-1.351.783.783,0,0,1,.34-.595,3.152,3.152,0,0,1,2.013-.145.783.783,0,0,1,.424.539,11.02,11.02,0,0,1,.194,2.691.789.789,0,0,1-.342.595,2.251,2.251,0,0,1-1,.238A2.208,2.208,0,0,1,351.778,730.073Zm1.574-.552a.465.465,0,0,0,.182-.39,8.029,8.029,0,0,0-.029-1.1,7.9,7.9,0,0,0-.13-1.1.471.471,0,0,0-.237-.359,1.587,1.587,0,0,0-.608-.033,1.557,1.557,0,0,0-.593.12.475.475,0,0,0-.18.39,12.118,12.118,0,0,0,.159,2.2.472.472,0,0,0,.234.359,1.567,1.567,0,0,0,.605.033A1.593,1.593,0,0,0,353.352,729.52Z" transform="translate(-346.23 -725.159)" fill="#fff"/>
              <path id="Path_47" data-name="Path 47" d="M391.249,727.167l-.173-3.1h-.024l-.848,3.159-.478.026-1.189-3.044h-.024l.174,3.1-.579.033-.227-4.064.863-.049,1.163,2.987.036,0,.822-3.1.851-.048.227,4.064Z" transform="translate(-378.115 -722.619)" fill="#fff"/>
              <path id="Path_48" data-name="Path 48" d="M432.2,725.792l-.165-4.066,2.34-.1.021.526-1.733.07.05,1.224,1.5-.061.021.526-1.5.061.052,1.265,1.733-.07.021.526Z" transform="translate(-416.43 -721.37)" fill="#fff"/>
              <path id="Path_49" data-name="Path 49" d="M483.383,724.184l-.009-.509q.64.054,1.066.045a2.4,2.4,0,0,0,.428-.038.587.587,0,0,0,.25-.106.343.343,0,0,0,.106-.194,1.668,1.668,0,0,0,.02-.334,1.708,1.708,0,0,0-.034-.375.237.237,0,0,0-.119-.157.937.937,0,0,0-.3-.074l-.794-.091a.906.906,0,0,1-.477-.168.68.68,0,0,1-.223-.35,2.324,2.324,0,0,1-.067-.56,1.412,1.412,0,0,1,.137-.724.771.771,0,0,1,.426-.357,2.324,2.324,0,0,1,.723-.108c.2,0,.4,0,.6.015a4.128,4.128,0,0,1,.51.065l.009.5a5.84,5.84,0,0,0-.971-.053,2.514,2.514,0,0,0-.443.038.569.569,0,0,0-.247.106.324.324,0,0,0-.112.182,1.366,1.366,0,0,0-.021.305,1.564,1.564,0,0,0,.033.337.227.227,0,0,0,.107.149.731.731,0,0,0,.262.063l.806.091a1.346,1.346,0,0,1,.44.112.569.569,0,0,1,.26.293,1.922,1.922,0,0,1,.108.7,1.73,1.73,0,0,1-.124.781.727.727,0,0,1-.4.374,2.046,2.046,0,0,1-.7.111A9.7,9.7,0,0,1,483.383,724.184Z" transform="translate(-460.86 -720.025)" fill="#fff"/>
              <path id="Path_50" data-name="Path 50" d="M517.689,723.662a.777.777,0,0,1-.385-.566,7.861,7.861,0,0,1-.086-1.348,7.777,7.777,0,0,1,.074-1.349.776.776,0,0,1,.379-.57,3.148,3.148,0,0,1,2.017-.009.787.787,0,0,1,.387.566,10.965,10.965,0,0,1,.013,2.7.786.786,0,0,1-.382.57,2.256,2.256,0,0,1-1.011.17A2.231,2.231,0,0,1,517.689,723.662Zm1.607-.445a.471.471,0,0,0,.209-.377,7.816,7.816,0,0,0,.045-1.1,7.957,7.957,0,0,0-.055-1.1.468.468,0,0,0-.211-.374,1.6,1.6,0,0,0-.6-.074,1.564,1.564,0,0,0-.6.079.469.469,0,0,0-.2.377,12.168,12.168,0,0,0,.011,2.207.475.475,0,0,0,.209.375,2.376,2.376,0,0,0,1.2-.007Z" transform="translate(-490.361 -719.659)" fill="#fff"/>
              <path id="Path_51" data-name="Path 51" d="M554.43,724.08l.036-4.07.609.005-.03,3.526,1.532.013,0,.544Z" transform="translate(-522.655 -719.964)" fill="#fff"/>
              <path id="Path_52" data-name="Path 52" d="M587.038,720.412l-.05,2.284a5.451,5.451,0,0,1-.115,1.163.749.749,0,0,1-.385.509,2.828,2.828,0,0,1-1.825-.041.757.757,0,0,1-.367-.529,5.286,5.286,0,0,1-.066-1.164l.05-2.284.609.013-.055,2.49a4.05,4.05,0,0,0,.028.728.4.4,0,0,0,.192.3,1.251,1.251,0,0,0,.53.091,1.233,1.233,0,0,0,.529-.069.391.391,0,0,0,.2-.286,4.389,4.389,0,0,0,.058-.729l.055-2.49Z" transform="translate(-548.513 -720.259)" fill="#fff"/>
              <path id="Path_53" data-name="Path 53" d="M620.4,725.336l.128-3.523-1.052-.038.02-.544,2.72.1-.02.544-1.052-.038-.128,3.523Z" transform="translate(-579.108 -721.022)" fill="#fff"/>
              <path id="Path_54" data-name="Path 54" d="M652.91,726.685l.193-4.065.609.029-.193,4.065Z" transform="translate(-608.12 -722.229)" fill="#fff"/>
              <path id="Path_55" data-name="Path 55" d="M673.565,727.782a.776.776,0,0,1-.348-.589,11.481,11.481,0,0,1,.159-2.692.779.779,0,0,1,.414-.544,3.161,3.161,0,0,1,2.014.119.786.786,0,0,1,.35.589,11.037,11.037,0,0,1-.16,2.693.789.789,0,0,1-.418.544,3.134,3.134,0,0,1-2.011-.12Zm1.633-.342a.466.466,0,0,0,.231-.362,12.14,12.14,0,0,0,.129-2.2.467.467,0,0,0-.188-.387,1.588,1.588,0,0,0-.6-.112,1.567,1.567,0,0,0-.6.041.474.474,0,0,0-.229.363,7.97,7.97,0,0,0-.115,1.1,7.758,7.758,0,0,0-.015,1.1.469.469,0,0,0,.185.387,2.371,2.371,0,0,0,1.2.07Z" transform="translate(-625.72 -723.288)" fill="#fff"/>
              <path id="Path_56" data-name="Path 56" d="M711.746,730.152l-1.378-3.021h-.024l-.214,2.9-.589-.044.3-4.06.637.048,1.343,2.929h.024l.209-2.815.584.044-.3,4.058Z" transform="translate(-657.266 -725.101)" fill="#fff"/>
              <path id="Path_57" data-name="Path 57" d="M745.83,733.094l.045-.506q.63.121,1.055.159a2.418,2.418,0,0,0,.43.008.612.612,0,0,0,.259-.078.334.334,0,0,0,.125-.182,1.579,1.579,0,0,0,.055-.33,1.845,1.845,0,0,0,.007-.377.237.237,0,0,0-.1-.169.9.9,0,0,0-.293-.106l-.78-.176a.909.909,0,0,1-.456-.218.667.667,0,0,1-.184-.373,2.367,2.367,0,0,1-.007-.564,1.427,1.427,0,0,1,.214-.706.771.771,0,0,1,.461-.309,2.311,2.311,0,0,1,.731-.03c.2.017.4.044.593.079a3.807,3.807,0,0,1,.5.119l-.044.5a5.719,5.719,0,0,0-.961-.156,2.491,2.491,0,0,0-.444-.009.572.572,0,0,0-.256.078.324.324,0,0,0-.131.169,1.328,1.328,0,0,0-.053.3,1.51,1.51,0,0,0,0,.338.229.229,0,0,0,.09.16.747.747,0,0,0,.254.091l.792.177a1.334,1.334,0,0,1,.425.16.561.561,0,0,1,.227.32,1.934,1.934,0,0,1,.033.7,1.738,1.738,0,0,1-.208.763.735.735,0,0,1-.434.33,2.092,2.092,0,0,1-.707.036A9.953,9.953,0,0,1,745.83,733.094Z" transform="translate(-688.76 -727.872)" fill="#fff"/>
            </g>
          </g>
        </g>
        <g id="Group_30" data-name="Group 30">
          <path id="Path_58" data-name="Path 58" d="M321,702.69a326.158,326.158,0,0,1,32.955,1.664l-.807,7.954a319.755,319.755,0,0,0-64.375,0l-.8-7.954A327.808,327.808,0,0,1,321,702.69m0-.33a329.289,329.289,0,0,0-33.066,1.668l-.329.033.033.329.8,7.954.033.329.329-.033a319.627,319.627,0,0,1,64.309,0l.329.033.033-.329.807-7.954.033-.329-.329-.033A327.952,327.952,0,0,0,321,702.36Z" transform="translate(-287.6 -702.36)" fill="url(#linear-gradient-13)"/>
        </g>
      </g>
    </g>
  </g>
</svg>
